<svg xmlns="http://www.w3.org/2000/svg" viewBox="-362.71 -76.04 3038.68 635.99">
  <defs>
    <linearGradient id="a" x1="575.372" x2="410.082" y1="722.614" y2="1364.23" gradientTransform="matrix(0.48828, 0, 0, 0.48828, -498.131245, -169.618744)" gradientUnits="userSpaceOnUse">
      <stop offset="0" style="stop-color:#e28017;stop-opacity:1"/>
      <stop offset="1" style="stop-color:#f56c5c;stop-opacity:1"/>
    </linearGradient>
  </defs>
  <path d="M -3.479 -76.026 L 37.338 -76.036 L 37.471 -35.046 L 21.869 -35.216 L 21.967 -19.926 L 10.099 -20.106 C 10.193 -1.056 9.857 18.074 10.306 37.104 L 50.689 36.974 L 50.678 -11.936 L 82.721 -11.896 C 82.728 -6.266 82.681 -0.636 82.58 4.994 L 98.994 4.994 L 98.908 20.814 L 114.674 20.794 L 114.674 52.964 C 126.162 52.954 137.787 53.274 149.26 52.804 C 148.74 28.524 148.63 3.984 149.096 -20.306 L 164.994 -20.186 L 165.041 -33.446 L 183.463 -33.386 C 183.529 -21.666 183.525 -9.936 183.447 1.784 L 198.568 1.724 L 198.49 17.414 L 213.846 17.294 L 213.814 33.024 L 229.181 32.924 C 229.299 64.924 229.775 97.024 229.056 129.014 L 240.616 129.092 L 240.662 94.264 C 245.9 94.174 251.139 94.134 256.377 94.144 L 256.326 108.967 C 261.481 108.83 266.639 108.796 271.795 108.865 L 271.732 219.908 L 296.889 219.861 L 296.838 172.151 L 330.584 172.143 L 330.556 187.615 L 347.088 187.69 C 347.06 227.553 347.732 267.58 346.779 307.428 L 330.002 307.361 C 329.838 314.904 329.802 322.451 329.892 329.994 L 358.838 330.006 L 358.865 413.396 L 344.072 413.456 L 344.139 429.396 L 329.486 429.518 L 329.599 445.147 L 314.775 445.221 L 314.881 460.686 L 298.799 460.709 L 299.131 475.83 L 284.08 475.854 L 284.19 490.854 C 276.521 490.842 268.838 490.717 261.166 490.842 L 261.166 505.623 L 226.439 505.576 L 226.439 519.74 C 220.515 519.732 214.592 519.678 208.669 519.58 C 208.729 524.46 208.853 529.35 208.846 534.229 C 204.002 534.811 198.866 534.475 193.978 534.459 L 168.564 534.369 C 164.294 534.358 159.194 533.776 155.092 534.834 C 154.881 535.319 154.646 535.772 154.541 536.287 C 154.931 544.131 154.662 552.104 154.678 559.959 L -152.65 559.912 L -152.64 534.404 C -160.39 533.811 -168.36 534.134 -176.14 534.139 L -217 534.186 L -216.9 519.889 L -244.67 519.936 L -244.61 505.556 C -249.76 505.369 -254.96 505.58 -260.12 505.646 L -260.12 490.851 C -269.81 490.417 -279.64 490.749 -289.34 490.843 L -289.13 475.793 C -294.39 475.632 -299.68 475.71 -304.94 475.679 L -304.82 460.398 L -320.2 460.366 L -319.94 445.327 C -324.55 444.757 -329.46 445.112 -334.11 445.144 L -334 428.972 L -347.98 428.702 C -347.79 423.605 -347.83 418.487 -347.78 413.39 C -352.75 413.304 -357.74 413.366 -362.71 413.355 C -362.2 390.39 -362.93 367.378 -362.57 344.405 L -346.83 344.375 L -346.85 358.37 L -334.97 358.386 L -334.99 321.628 C -339.15 321.573 -343.31 321.636 -347.47 321.648 C -347.38 316.768 -347.15 311.788 -347.56 306.925 C -352.47 307.323 -357.56 307.069 -362.5 307.085 L -362.48 204.351 C -361.06 204.343 -358.93 204.601 -357.72 203.843 C -356.96 198.553 -357.44 192.616 -357.46 187.253 C -352.26 187.23 -347.06 187.312 -341.86 187.355 L -341.9 171.695 L -332.29 171.655 C -332.32 166.077 -332.45 160.475 -332.32 154.902 L -310.53 155.007 L -310.7 219.874 C -300.59 219.944 -290.49 219.929 -280.38 219.816 L -280.38 189.951 C -284.41 189.924 -288.44 189.944 -292.47 190.01 C -292.39 185.072 -291.66 179.026 -292.77 174.252 C -293.9 173.779 -294.98 173.916 -296.18 173.967 C -297.05 173.151 -296.82 173.654 -296.86 172.427 C -297.71 146.334 -297.06 120.022 -297.05 93.904 C -291.5 93.764 -285.95 93.724 -280.4 93.794 C -280.52 84.994 -280.53 76.204 -280.4 67.404 L -264.86 67.284 C -264.84 62.254 -264.87 57.214 -264.79 52.174 L -233.32 52.154 L -233.38 128.729 L -212 128.759 C -212.08 103.404 -212.28 78.014 -211.99 52.654 L -195.52 52.614 C -195.6 45.114 -195.79 37.604 -195.55 30.104 L -180.22 30.074 L -180.19 14.474 L -164.13 14.564 L -164.11 -0.766 L -144.85 -0.796 L -144.88 -14.116 C -139.24 -14.256 -133.61 -14.286 -127.97 -14.196 L -127.97 52.734 C -116.59 52.724 -105.18 52.874 -93.803 52.654 L -93.815 -5.586 C -88.518 -5.596 -83.213 -5.546 -77.916 -5.616 C -78.092 -10.706 -78.158 -15.796 -78.116 -20.886 C -73.08 -20.866 -68.037 -20.796 -63.006 -20.846 L -63.108 -35.396 L -50.178 -35.456 C -50.166 -40.446 -50.233 -45.446 -50.131 -50.436 L -24.264 -50.426 C -24.233 -55.456 -24.256 -60.476 -24.334 -65.506 L -3.564 -65.586 L -3.479 -76.026 Z M -3.479 -76.026" style="stroke: none; fill-rule: nonzero; fill: rgb(35, 37, 43); fill-opacity: 1; stroke-width: 1;"/>
  <path d="M -3.479 -76.026 L 37.338 -76.036 L 37.471 -35.046 L 21.869 -35.216 L 21.967 -19.926 L 10.099 -20.106 C 10.193 -1.056 9.857 18.074 10.306 37.104 L 50.689 36.974 L 50.678 -11.936 L 82.721 -11.896 C 82.728 -6.266 82.681 -0.636 82.58 4.994 L 98.994 4.994 L 98.908 20.814 L 114.674 20.794 L 114.674 52.964 C 126.162 52.954 137.787 53.274 149.26 52.804 C 148.74 28.524 148.63 3.984 149.096 -20.306 L 164.994 -20.186 L 165.041 -33.446 L 183.463 -33.386 C 183.529 -21.666 183.525 -9.936 183.447 1.784 L 198.568 1.724 L 198.49 17.414 L 213.846 17.294 L 213.814 33.024 L 229.181 32.924 C 229.299 64.924 229.775 97.024 229.056 129.014 L 240.616 129.092 L 240.662 94.264 C 245.9 94.174 251.139 94.134 256.377 94.144 L 256.326 108.967 C 261.481 108.83 266.639 108.796 271.795 108.865 L 271.732 219.908 L 296.889 219.861 L 296.838 172.151 L 330.584 172.143 L 330.556 187.615 L 347.088 187.69 C 347.06 227.553 347.732 267.58 346.779 307.428 L 330.002 307.361 C 326.982 307.283 315.56 306.065 313.607 307.841 L 313.221 310.826 C 312.01 301.678 312.533 292.041 312.533 282.819 C 312.533 271.975 312.26 261.033 312.849 250.209 C 307.669 250.162 302.494 250.159 297.319 250.201 L 297.322 264.991 C 288.398 264.854 279.471 264.917 270.549 265.178 L 270.463 250.369 C 264.529 250.447 258.603 250.475 252.67 250.447 C 252.92 245.373 252.775 240.267 252.744 235.19 L 235.799 235.166 C 235.717 215.056 235.849 194.943 236.201 174.838 C 232.971 174.752 229.736 174.788 226.501 174.776 C 226.392 169.998 226.443 165.209 226.431 160.436 L 210.775 160.428 C 210.744 155.557 210.755 150.686 210.807 145.818 L 197.397 145.764 C 196.537 115.014 197.549 84.214 196.927 53.464 C 191.985 53.324 187.04 53.284 182.096 53.344 C 182.08 58.414 182.033 63.484 181.963 68.554 L 176.107 68.614 L 176.162 84.184 L 164.584 84.354 L 164.4 96.894 C 161.068 96.864 157.85 96.834 154.557 96.314 C 149.299 94.994 138.568 95.914 132.615 95.914 C 115.639 96.014 98.665 96.014 81.693 95.904 C 64.471 96.324 47.185 95.944 29.959 95.884 C 18.412 96.364 6.662 95.944 -4.904 95.944 L -77.24 95.854 L -125.99 95.964 C -134.82 95.974 -143.89 96.354 -152.68 95.684 L -152.54 121.322 C -160.95 121.326 -169.44 121.545 -177.84 121.209 C -178.67 121.936 -178.6 121.615 -178.69 122.881 C -178.75 123.866 -178.77 124.854 -178.75 125.841 C -180.2 125.561 -180.75 125.241 -182.11 125.877 C -183.53 128.924 -182.63 132.819 -182.7 136.115 L -198.71 136.108 L -198.77 146.385 L -220.29 146.787 C -220.2 151.498 -220.17 156.213 -220.01 160.917 C -229.64 160.901 -239.3 161.002 -248.92 160.857 C -248.82 155.861 -248.83 150.861 -248.94 145.865 L -264.3 145.799 L -264.13 174.147 L -264.5 174.197 C -263.43 188.987 -264.6 205.33 -264.45 220.315 C -269.72 220.315 -275.01 220.225 -280.28 220.393 L -280.35 236.096 L -311.17 236.065 L -311.11 220.123 L -326.68 220.076 L -326.59 187.748 C -331.64 187.631 -336.84 187.822 -341.86 187.354 L -341.9 171.694 L -332.29 171.654 C -332.32 166.076 -332.45 160.474 -332.32 154.901 L -310.53 155.006 L -310.7 219.873 C -300.59 219.943 -290.49 219.928 -280.38 219.815 L -280.38 189.951 C -284.41 189.924 -288.44 189.944 -292.47 190.01 C -292.39 185.072 -291.66 179.026 -292.77 174.252 C -293.9 173.779 -294.98 173.916 -296.18 173.967 C -297.05 173.151 -296.82 173.654 -296.86 172.427 C -297.71 146.334 -297.06 120.022 -297.05 93.904 C -291.5 93.764 -285.95 93.724 -280.4 93.794 C -280.52 84.994 -280.53 76.204 -280.4 67.404 L -264.86 67.284 C -264.84 62.254 -264.87 57.214 -264.79 52.174 L -233.32 52.154 L -233.38 128.729 L -212 128.759 C -212.08 103.404 -212.28 78.014 -211.99 52.654 L -195.52 52.614 C -195.6 45.114 -195.79 37.604 -195.55 30.104 L -180.22 30.074 L -180.19 14.474 L -164.13 14.564 L -164.11 -0.766 L -144.85 -0.796 L -144.88 -14.116 C -139.24 -14.256 -133.61 -14.286 -127.97 -14.196 L -127.97 52.734 C -116.59 52.724 -105.18 52.874 -93.803 52.654 L -93.815 -5.586 C -88.518 -5.596 -83.213 -5.546 -77.916 -5.616 C -78.092 -10.706 -78.158 -15.796 -78.116 -20.886 C -73.08 -20.866 -68.037 -20.796 -63.006 -20.846 L -63.108 -35.396 L -50.178 -35.456 C -50.166 -40.446 -50.233 -45.446 -50.131 -50.436 L -24.264 -50.426 C -24.233 -55.456 -24.256 -60.476 -24.334 -65.506 L -3.564 -65.586 L -3.479 -76.026 Z M -3.479 -76.026" style="stroke: none; fill-rule: nonzero; fill: rgb(230, 124, 37); fill-opacity: 1; stroke-width: 1;"/>
  <path d="M -3.479 -76.026 L 37.338 -76.036 L 37.471 -35.046 L 21.869 -35.216 L 21.967 -19.926 L 10.099 -20.106 C 10.193 -1.056 9.857 18.074 10.306 37.104 L 50.689 36.974 L 50.678 -11.936 L 82.721 -11.896 C 82.728 -6.266 82.681 -0.636 82.58 4.994 L 98.994 4.994 L 98.908 20.814 L 114.674 20.794 L 114.674 52.964 C 126.162 52.954 137.787 53.274 149.26 52.804 C 148.74 28.524 148.63 3.984 149.096 -20.306 L 164.994 -20.186 L 165.041 -33.446 L 183.463 -33.386 C 183.529 -21.666 183.525 -9.936 183.447 1.784 L 198.568 1.724 L 198.49 17.414 L 213.846 17.294 L 213.814 33.024 L 229.181 32.924 C 229.299 64.924 229.775 97.024 229.056 129.014 L 240.616 129.092 L 240.662 94.264 C 245.9 94.174 251.139 94.134 256.377 94.144 L 256.326 108.967 C 261.481 108.83 266.639 108.796 271.795 108.865 L 271.732 219.908 L 296.889 219.861 L 296.838 172.151 L 330.584 172.143 L 330.556 187.615 L 347.088 187.69 C 347.06 227.553 347.732 267.58 346.779 307.428 L 330.002 307.361 C 331.014 293.154 330.377 278.561 330.385 264.295 L 330.502 187.74 L 313.096 187.69 C 313.037 198.518 313.201 209.326 313.045 220.154 L 297.201 220.194 L 297.142 236.127 L 271.275 236.182 L 271.396 220.33 C 266.228 220.287 261.056 220.354 255.892 220.37 C 256.291 211.053 255.872 201.569 255.869 192.233 C 255.796 171.666 255.875 151.099 256.107 130.533 C 252.205 130.209 248.346 130.256 244.439 130.319 L 244.174 144.904 L 228.744 144.932 C 228.524 139.699 228.573 134.457 228.892 129.229 C 223.697 129.264 218.498 129.264 213.31 129.229 C 213.271 97.384 212.732 65.424 213.525 33.594 L 198.193 33.664 L 198.244 17.804 L 183.064 17.874 C 182.986 12.624 183.072 7.384 183.322 2.144 L 170.717 2.364 C 170.596 -0.146 170.623 -2.676 170.596 -5.206 L 164.752 -5.256 C 164.998 14.244 165.056 33.764 164.935 53.274 L 150.291 53.204 L 150.369 69.234 C 138.293 69.164 126.217 69.204 114.142 69.354 L 114.135 53.484 L 98.607 53.484 L 98.607 21.154 L 82.497 21.184 C 82.471 15.824 82.463 10.464 82.494 5.104 L 66.904 5.244 L 66.822 37.424 L 51.158 37.424 L 51.162 53.194 L 10.08 53.274 C 9.892 48.014 9.783 42.804 9.92 37.544 C 4.709 37.944 -0.69 37.604 -5.924 37.554 L -5.983 -20.626 C -0.943 -20.606 4.096 -20.516 9.131 -20.376 C 9.091 -25.366 9.014 -30.366 8.901 -35.366 C 13.123 -35.536 17.353 -35.596 21.58 -35.546 C 21.674 -44.436 21.693 -53.326 21.642 -62.226 L 5.498 -62.206 L 5.451 -49.526 C -4.373 -49.666 -14.189 -49.716 -24.009 -49.696 L -23.936 -34.856 L -49.592 -34.906 L -49.58 -20.226 C -53.803 -20.336 -58.045 -20.266 -62.268 -20.286 L -62.17 -5.186 C -67.346 -5.116 -72.522 -5.176 -77.694 -5.346 C -77.393 14.154 -77.647 33.694 -77.651 53.204 L -93.373 53.094 L -93.413 68.964 C -105.01 69.064 -116.6 69.054 -128.19 68.934 C -128.33 63.644 -128.44 58.374 -128.31 53.074 C -133.54 53.204 -138.79 53.094 -144.02 53.064 C -144.19 40.494 -144.06 27.904 -144.05 15.324 C -150.6 14.804 -157.35 15.044 -163.93 14.984 C -163.91 20.114 -163.94 25.244 -163.99 30.384 C -169.28 30.104 -174.57 30.264 -179.86 30.334 C -179.73 37.894 -179.69 45.454 -179.72 53.014 L -195.37 52.974 L -195.38 129.467 L -211.62 129.252 L -211.59 144.854 L -234.19 144.795 C -234.36 139.608 -234.16 134.459 -233.96 129.279 L -249.58 129.221 C -249.67 108.831 -249.64 88.434 -249.49 68.044 C -254.51 67.984 -259.54 67.904 -264.56 67.794 L -264.66 94.174 C -269.9 94.244 -275.14 94.274 -280.37 94.244 L -280.37 174.178 C -275.08 174.084 -269.78 174.092 -264.5 174.198 C -263.43 188.986 -264.6 205.33 -264.45 220.315 C -269.72 220.315 -275.01 220.225 -280.28 220.393 L -280.35 236.096 L -311.17 236.065 L -311.11 220.123 L -326.68 220.076 L -326.59 187.748 C -331.64 187.631 -336.84 187.822 -341.86 187.354 L -341.9 171.694 L -332.29 171.654 C -332.32 166.076 -332.45 160.474 -332.32 154.901 L -310.53 155.006 L -310.7 219.873 C -300.59 219.943 -290.49 219.928 -280.38 219.815 L -280.38 189.951 C -284.41 189.924 -288.44 189.944 -292.47 190.01 C -292.39 185.072 -291.66 179.026 -292.77 174.252 C -293.9 173.779 -294.98 173.916 -296.18 173.967 C -297.05 173.151 -296.82 173.654 -296.86 172.427 C -297.71 146.334 -297.06 120.022 -297.05 93.904 C -291.5 93.764 -285.95 93.724 -280.4 93.794 C -280.52 84.994 -280.53 76.204 -280.4 67.404 L -264.86 67.284 C -264.84 62.254 -264.87 57.214 -264.79 52.174 L -233.32 52.154 L -233.38 128.729 L -212 128.759 C -212.08 103.404 -212.28 78.014 -211.99 52.654 L -195.52 52.614 C -195.6 45.114 -195.79 37.604 -195.55 30.104 L -180.22 30.074 L -180.19 14.474 L -164.13 14.564 L -164.11 -0.766 L -144.85 -0.796 L -144.88 -14.116 C -139.24 -14.256 -133.61 -14.286 -127.97 -14.196 L -127.97 52.734 C -116.59 52.724 -105.18 52.874 -93.803 52.654 L -93.815 -5.586 C -88.518 -5.596 -83.213 -5.546 -77.916 -5.616 C -78.092 -10.706 -78.158 -15.796 -78.116 -20.886 C -73.08 -20.866 -68.037 -20.796 -63.006 -20.846 L -63.108 -35.396 L -50.178 -35.456 C -50.166 -40.446 -50.233 -45.446 -50.131 -50.436 L -24.264 -50.426 C -24.233 -55.456 -24.256 -60.476 -24.334 -65.506 L -3.564 -65.586 L -3.479 -76.026 Z M -3.479 -76.026" style="stroke: none; fill-rule: nonzero; fill: rgb(35, 37, 43); fill-opacity: 1; stroke-width: 1;"/>
  <path d="M -28.943 -20.146 L -22.147 -20.116 C -22.667 -10.226 -22.447 -0.256 -22.459 9.654 C -22.514 24.274 -22.494 38.904 -22.401 53.524 C -17.1 53.064 -11.662 52.954 -6.358 53.444 L -6.326 69.484 C -1.014 69.614 4.306 69.664 9.619 69.634 L 9.659 85.284 C 23.357 85.414 37.064 85.404 50.764 85.284 C 50.889 79.974 51.088 74.654 51.072 69.334 C 56.404 69.334 61.76 69.234 67.088 69.444 C 67.025 64.134 66.849 58.794 67.056 53.494 C 72.276 53.494 77.502 53.444 82.724 53.524 C 82.463 63.954 82.877 74.374 82.877 84.804 C 87.943 84.804 93.084 84.634 98.127 85.134 C 98.111 88.614 97.987 92.134 98.26 95.604 C 92.846 95.584 87.057 95.154 81.693 95.904 C 64.471 96.324 47.185 95.944 29.959 95.884 C 19.244 94.444 7.369 95.604 -3.486 95.614 C -28.338 95.644 -53.26 95.834 -78.104 95.474 L -77.959 85.294 C -74.307 85.244 -70.651 85.174 -66.999 85.174 C -66.967 79.694 -67.029 74.204 -66.846 68.744 L -59.643 68.794 C -59.654 52.194 -59.272 35.494 -59.795 18.904 L -47.373 18.874 L -47.404 -5.456 L -29.115 -5.516 L -28.943 -20.146 Z M -163.08 68.764 C -163.03 65.224 -164.33 57.604 -162.77 54.594 C -162.11 53.324 -161.76 53.354 -160.46 53.034 L -159.68 53.564 C -159.11 58.524 -159.66 63.754 -159.58 68.764 C -154.87 68.654 -150.15 68.604 -145.44 68.604 L -145.45 85.214 L -128.6 85.194 L -128.51 95.654 C -136.44 95.514 -144.8 94.904 -152.68 95.684 L -152.54 121.322 C -160.95 121.326 -169.44 121.545 -177.84 121.209 C -177.24 114.986 -177.6 108.424 -177.61 102.174 L -177.66 68.674 L -163.08 68.764 Z M -163.08 68.764" style="stroke: none; fill-rule: nonzero; fill: rgb(246, 182, 70); fill-opacity: 1; stroke-width: 1;"/>
  <path d="M -182.7 136.115 C -182.63 132.819 -183.53 128.924 -182.11 125.877 C -180.75 125.24 -180.2 125.561 -178.75 125.842 L -178.72 145.787 L -191.61 145.822 C -191.67 154.608 -191.67 163.392 -191.6 172.178 L -217.26 172.233 C -217.4 191.323 -217.42 210.416 -217.3 229.51 C -217.26 239.404 -216.96 249.37 -217.24 259.252 C -229.64 259.44 -242.05 259.467 -254.46 259.342 C -254.39 267.58 -254.38 275.818 -254.43 284.057 L -279.41 284.072 L -279.42 411.873 C -271.06 411.913 -262.69 411.85 -254.34 412.018 L -254.47 436.963 L -217.25 437.253 C -216.05 454.049 -217.26 471.35 -217.02 488.217 C -204.25 488.475 -191.4 488.037 -178.65 488.565 C -178.56 498.697 -178.07 508.94 -178.64 519.061 L -215.87 519.194 L -215.9 505.026 C -225.38 504.966 -234.86 505.01 -244.34 505.151 L -244.27 490.561 L -259.86 490.561 L -259.81 475.225 C -269.54 475.066 -279.26 475.123 -288.98 475.397 C -288.92 470.307 -288.79 465.205 -288.82 460.115 C -294.08 460.127 -299.35 460.088 -304.61 460.151 C -304.42 454.998 -304.35 449.841 -304.39 444.686 C -309.24 444.721 -314.21 444.541 -319.05 444.99 L -319.6 444.467 C -320.33 439.487 -319.81 433.667 -319.56 428.639 C -324.24 428.553 -328.89 428.67 -333.57 428.819 L -333.57 413.108 C -338.13 412.901 -342.71 413.057 -347.27 413.123 L -347.31 373.783 C -342.94 373.67 -338.56 373.795 -334.18 373.858 L -333.96 385.068 L -305.82 384.928 C -305.87 376.061 -305.85 367.193 -305.78 358.33 C -310.31 358.256 -314.86 358.35 -319.4 358.358 C -319.42 345.811 -319.75 333.143 -319.21 320.611 C -324.34 320.521 -329.48 320.647 -334.61 320.674 C -334.74 315.963 -334.77 311.248 -334.68 306.534 L -347.22 306.682 C -346.79 295.846 -347.08 284.952 -347.11 274.104 L -347.11 232.994 C -347.14 225.631 -348.15 210.944 -346.96 204.459 C -345.53 203.631 -343.4 203.901 -341.76 203.904 L -341.86 187.354 C -336.84 187.822 -331.64 187.631 -326.59 187.748 L -326.68 220.076 L -311.11 220.123 L -311.17 236.065 L -280.35 236.095 L -280.28 220.393 C -275.01 220.225 -269.72 220.315 -264.45 220.315 C -264.6 205.33 -263.43 188.986 -264.49 174.197 L -264.13 174.147 L -264.3 145.799 L -248.94 145.865 C -248.83 150.861 -248.82 155.861 -248.92 160.858 C -239.29 161.002 -229.64 160.901 -220.01 160.916 C -220.17 156.213 -220.2 151.498 -220.29 146.787 L -198.77 146.385 L -198.71 136.108 L -182.7 136.115 Z M -182.7 136.115" style="stroke: none; fill-rule: nonzero; fill: url(&quot;#a&quot;); stroke-width: 1;"/>
  <path d="M -182.7 136.115 C -182.63 132.819 -183.53 128.924 -182.11 125.877 C -180.75 125.24 -180.2 125.561 -178.75 125.842 L -178.72 145.787 L -191.61 145.822 C -191.67 154.608 -191.67 163.392 -191.6 172.178 L -217.26 172.233 C -217.4 191.323 -217.42 210.416 -217.3 229.51 C -217.26 239.404 -216.96 249.37 -217.24 259.252 C -229.64 259.44 -242.05 259.467 -254.46 259.342 C -254.39 267.58 -254.38 275.818 -254.43 284.057 L -279.41 284.072 L -279.42 411.873 C -271.06 411.913 -262.69 411.85 -254.34 412.018 L -254.47 436.963 L -217.25 437.253 C -218.26 448.588 -217.42 461.549 -217.41 473.045 C -226.37 472.944 -235.33 473.022 -244.29 473.014 C -244.28 468.897 -244.19 464.776 -244.13 460.662 L -259.39 460.612 C -259.72 455.635 -259.78 450.713 -259.76 445.729 L -274.15 445.779 C -274.12 441.518 -274.34 437.236 -274.46 432.975 L -288.74 432.975 L -288.69 422.752 C -291.78 422.702 -294.75 422.744 -297.82 423.08 C -297.81 419.71 -297.85 416.338 -297.96 412.963 C -300.69 413.213 -303.43 413.303 -306.17 413.428 L -306.23 397.303 C -301.14 397.143 -296.09 397.029 -291.01 397.143 L -291.1 332.303 C -293.06 332.631 -294.8 332.967 -296.79 332.69 C -298.5 330.943 -297.65 310.83 -297.64 307.033 C -301.33 307.073 -305.04 306.959 -308.73 306.904 C -308.87 301.85 -308.74 296.772 -308.7 291.713 L -327.19 291.686 C -326.07 275.252 -327.03 258.072 -327.17 241.58 L -318.69 241.56 C -319.04 244.744 -318.9 248.053 -318.92 251.26 L -306.69 251.338 C -306.4 255.858 -306.42 260.388 -306.4 264.916 C -292.55 265.537 -278.56 265.283 -264.69 265.268 C -264.69 260.408 -264.7 255.604 -264.2 250.76 L -254.94 250.537 L -254.91 235.662 L -240.33 235.576 C -240.34 220.447 -239.51 204.752 -240.69 189.682 L -249.04 189.69 C -248.99 184.506 -248.98 179.318 -249.01 174.131 C -254.05 174.062 -259.09 174.068 -264.13 174.147 L -264.3 145.799 L -248.94 145.865 C -248.83 150.861 -248.82 155.861 -248.92 160.858 C -239.29 161.002 -229.64 160.901 -220.01 160.916 C -220.17 156.213 -220.2 151.498 -220.29 146.787 L -198.77 146.385 L -198.71 136.108 L -182.7 136.115 Z M -182.7 136.115" style="stroke: none; fill-rule: nonzero; fill: rgb(246, 182, 70); fill-opacity: 1; stroke-width: 1;"/>
  <path d="M -152.39 121.697 C -142.35 121.639 -132.32 121.682 -122.29 121.827 C -122.19 133.959 -122.18 146.096 -122.26 158.233 C -121.64 202.545 -122.29 246.951 -122.33 291.279 L -160.76 291.303 L -160.82 391.353 C -148.06 391.279 -135.18 391.666 -122.42 391.139 L -122.32 468.643 C -122.33 482.092 -122.01 495.603 -122.48 509.037 L -152.1 509.077 C -152.08 501.596 -152.12 494.115 -152.22 486.635 L -164.03 486.6 L -164.12 462.756 L -191.32 462.721 L -191.6 172.178 L -174.85 172.147 L -163.72 172.104 L -163.91 146.276 L -152.28 146.33 C -152.11 138.131 -152.33 129.897 -152.39 121.697 Z M -152.39 121.697" style="stroke: none; fill-rule: nonzero; fill: rgb(192, 196, 197); fill-opacity: 1; stroke-width: 1;"/>
  <path d="M -152.39 121.697 C -142.35 121.639 -132.32 121.682 -122.29 121.827 C -122.19 133.959 -122.18 146.096 -122.26 158.233 C -123.81 165.588 -122.78 179.377 -122.73 187.44 C -130.06 187.416 -137.41 187.28 -144.73 187.514 C -144.67 201.471 -144.41 215.483 -144.71 229.436 L -174.91 229.584 L -174.85 172.147 L -163.72 172.104 L -163.91 146.276 L -152.28 146.33 C -152.11 138.131 -152.33 129.897 -152.39 121.697 Z M -152.39 121.697" style="stroke: none; fill-rule: nonzero; fill: rgb(231, 232, 232); fill-opacity: 1; stroke-width: 1;"/>
  <path d="M 165.877 146.233 C 166.131 154.865 165.892 163.541 165.822 172.182 C 175.064 172.123 184.307 172.178 193.545 172.35 C 193.123 208.037 193.431 243.756 193.424 279.444 L 193.349 462.354 L 165.892 462.494 C 165.61 470.547 165.518 478.605 165.615 486.662 C 161.869 486.69 158.072 486.588 154.334 486.822 C 154.467 502.533 154.119 518.268 154.534 533.971 L 189.807 533.936 C 195.978 533.932 202.752 533.412 208.846 534.229 C 204.002 534.811 198.866 534.475 193.978 534.459 L 168.564 534.369 C 164.294 534.358 159.194 533.776 155.092 534.834 C 154.881 535.319 154.646 535.772 154.541 536.287 C 154.463 535.186 154.651 534.955 153.877 534.115 C 144.412 533.252 134.389 533.959 124.857 533.995 C 124.58 520.279 124.857 506.51 124.853 492.795 L 124.728 391.24 C 137.698 391.361 150.666 391.166 163.635 391.404 C 164.139 358.053 163.642 324.639 163.646 291.276 L 124.971 291.306 L 124.869 229.646 L 145.416 229.561 L 145.431 208.081 C 151.947 207.811 158.486 207.963 165.001 208.006 C 165.131 193.35 164.986 178.756 165.322 164.1 C 165.455 158.154 165.224 152.147 165.877 146.233 Z M 165.877 146.233" style="stroke: none; fill-rule: nonzero; fill: rgb(128, 139, 146); fill-opacity: 1; stroke-width: 1;"/>
  <path d="M 182.096 53.344 C 187.04 53.284 191.985 53.324 196.928 53.464 C 197.548 84.214 196.537 115.013 197.396 145.763 L 210.806 145.818 C 210.756 150.686 210.744 155.557 210.776 160.428 L 226.431 160.436 C 226.443 165.209 226.392 169.998 226.501 174.776 C 229.736 174.787 232.971 174.752 236.201 174.838 C 235.85 194.945 235.716 215.056 235.799 235.166 L 252.744 235.19 C 252.775 240.268 252.92 245.373 252.67 250.447 C 258.603 250.475 264.53 250.447 270.463 250.369 L 270.549 265.178 C 279.471 264.916 288.398 264.854 297.322 264.99 L 297.318 250.201 C 302.494 250.158 307.67 250.162 312.849 250.209 C 312.259 261.033 312.533 271.975 312.533 282.819 C 312.533 292.041 312.01 301.678 313.221 310.826 C 313.529 314.014 313.447 317.213 313.428 320.416 C 313.369 333.276 313.377 346.143 313.455 359.01 L 315.892 359.326 C 316.131 359.6 316.462 359.811 316.615 360.139 C 317.502 362.104 316.822 392.623 316.815 397.393 L 309.635 397.299 C 309.535 402.672 309.485 408.046 309.486 413.42 L 300.126 413.428 C 300.072 416.475 299.959 419.538 299.978 422.584 L 283.971 422.592 C 283.943 426.045 283.928 429.49 283.744 432.94 L 268.471 432.951 C 268.431 437.171 268.447 441.401 268.322 445.619 L 253.682 445.608 C 253.493 450.688 253.402 455.771 253.408 460.854 C 248.833 460.778 244.256 460.809 239.682 460.947 L 239.678 469.201 C 234.818 469.166 229.935 469.229 225.08 468.998 C 224.998 470.756 225.283 472.963 223.963 474.307 C 223.158 475.123 222.393 475.361 221.299 475.385 C 220.185 474.639 219.455 474.401 219.115 473.018 C 218.932 472.279 219.017 471.279 219.017 470.514 C 218.924 459.43 218.904 448.345 218.955 437.26 C 231.42 437.276 243.885 437.201 256.349 437.03 L 256.319 411.756 L 281.24 411.796 L 281.205 284.135 L 256.279 284.225 L 256.299 259.483 L 219.197 259.447 C 219.127 230.381 218.842 201.291 219.154 172.225 C 210.666 172.072 202.158 172.185 193.666 172.178 L 193.74 145.901 L 180.932 145.947 C 180.596 137.767 180.853 129.502 180.955 121.315 L 154.467 121.412 C 154.721 113.061 154.56 104.674 154.557 96.314 C 157.849 96.834 161.068 96.864 164.4 96.894 L 164.584 84.344 L 176.162 84.184 L 176.107 68.614 L 181.963 68.554 C 182.033 63.484 182.08 58.414 182.096 53.344 Z M 182.096 53.344" style="stroke: none; fill-rule: nonzero; fill: rgb(246, 182, 70); fill-opacity: 1; stroke-width: 1;"/>
  <path d="M 297.361 320.591 C 302.685 320.619 308.127 320.897 313.428 320.416 C 313.369 333.276 313.377 346.143 313.455 359.01 C 308.283 359.647 302.553 359.205 297.315 359.186 C 297.244 346.319 297.642 333.459 297.361 320.592 L 297.361 320.591 Z M 297.361 320.591" style="stroke: none; fill-rule: nonzero; fill: rgb(230, 124, 37); fill-opacity: 1; stroke-width: 1;"/>
  <path d="M 329.439 346.197 C 334.181 346.119 338.919 346.045 343.666 346.197 C 343.334 368.463 342.998 390.994 343.65 413.248 L 328.978 413.365 C 328.971 418.6 328.881 423.85 329.002 429.08 C 324.06 429.166 319.092 429.154 314.154 429.46 C 314.194 434.541 314.131 439.647 314.326 444.725 C 308.819 444.699 303.312 444.751 297.806 444.881 C 297.822 449.931 297.607 455.091 298.096 460.115 C 293.236 460.108 288.385 460.162 283.529 460.279 L 283.592 475.256 C 275.916 474.733 268.166 475.022 260.471 475.014 L 260.666 490.553 L 226.611 490.584 L 226.486 504.854 C 220.353 504.803 214.213 504.686 208.08 504.717 C 208.06 509.514 207.924 514.342 208.119 519.131 C 198.919 518.756 189.724 519.108 180.533 518.924 C 180.37 508.8 180.34 498.674 180.443 488.549 L 218.838 488.623 C 218.83 482.631 218.58 476.479 219.018 470.513 C 219.018 471.279 218.931 472.279 219.115 473.018 C 219.455 474.401 220.185 474.638 221.299 475.385 C 222.392 475.361 223.159 475.123 223.963 474.307 C 225.283 472.963 224.998 470.756 225.08 468.998 C 229.935 469.228 234.818 469.166 239.678 469.201 L 239.682 460.947 C 244.256 460.809 248.833 460.778 253.408 460.854 C 253.4 455.768 253.494 450.682 253.682 445.608 L 268.322 445.619 C 268.447 441.401 268.432 437.17 268.471 432.951 L 283.744 432.94 C 283.928 429.49 283.944 426.045 283.971 422.592 L 299.978 422.584 C 299.958 419.537 300.072 416.474 300.127 413.428 L 309.487 413.42 C 309.487 408.045 309.533 402.67 309.635 397.299 L 316.815 397.393 C 316.822 392.623 317.502 362.103 316.615 360.139 C 316.463 359.811 316.131 359.599 315.892 359.326 L 329.447 359.244 L 329.439 346.197 Z M 329.439 346.197" style="stroke: none; fill-rule: nonzero; fill: rgb(242, 110, 83); fill-opacity: 1; stroke-width: 1;"/>
  <path d="M 124.9 121.654 C 134.724 121.811 144.572 121.608 154.404 121.534 C 154.234 129.765 154.173 137.997 154.221 146.229 L 165.877 146.233 C 165.224 152.147 165.455 158.154 165.322 164.1 C 164.986 178.756 165.131 193.35 165.002 208.006 C 158.486 207.963 151.947 207.811 145.432 208.08 L 145.416 229.56 L 124.869 229.647 C 124.467 193.67 124.869 157.639 124.9 121.654 Z M 124.9 121.654" style="stroke: none; fill-rule: nonzero; fill: rgb(192, 196, 197); fill-opacity: 1; stroke-width: 1;"/>
  <path d="M -152.1 509.076 L -122.48 509.037 C -122.35 517.381 -122.38 525.733 -122.34 534.08 C -132.35 534.029 -142.36 534.033 -152.37 534.092 C -152.37 525.768 -152.53 517.392 -152.1 509.076 Z M -152.1 509.076" style="stroke: none; fill-rule: nonzero; fill: rgb(128, 139, 146); fill-opacity: 1; stroke-width: 1;"/>
  <path d="M -110.98 121.831 C -101.61 120.936 -91.772 121.467 -82.346 121.479 L -31.072 121.541 L 70.018 121.654 C 84.943 121.705 99.885 121.459 114.814 121.791 C 115.623 178.252 114.818 234.803 114.912 291.276 L 48.154 291.296 C 47.87 310.962 47.798 330.631 47.939 350.299 C 47.943 363.939 47.549 377.744 48.166 391.365 L 114.76 391.389 L 114.748 509.154 L 114.717 533.99 L -112.37 534.076 L -112.44 509.108 L -112.47 391.236 L -45.771 391.299 L -45.858 291.225 L -112.35 291.26 L -112.29 176.787 C -112.54 165.522 -112.36 154.225 -112.36 142.955 C -112.36 136.1 -112.75 128.995 -112.22 122.166 L -110.98 121.831 Z M -110.98 121.831" style="stroke: none; fill-rule: nonzero; fill: rgb(192, 196, 197); fill-opacity: 1; stroke-width: 1;"/>
  <path d="M -112.29 176.787 C -112.54 165.522 -112.36 154.225 -112.36 142.955 C -112.36 136.1 -112.75 128.995 -112.22 122.166 L -110.98 121.83 C -104.15 122.322 -97.178 122.045 -90.334 122.033 L -57.436 122.018 L 48.775 122.029 L 48.783 162.279 L -65.229 162.193 C -65.092 170.568 -65.053 178.947 -65.123 187.326 C -80.674 187.361 -96.253 187.108 -111.8 187.315 C -111.81 183.893 -111.53 180.115 -112.29 176.787 Z M -112.29 176.787" style="stroke: none; fill-rule: nonzero; fill: rgb(231, 232, 232); fill-opacity: 1; stroke-width: 1;"/>
  <path d="M -112.44 509.108 C -79.736 508.756 -46.998 509.088 -14.291 509.088 L 114.748 509.154 L 114.717 533.99 L -112.37 534.076 L -112.44 509.108 Z M -112.44 509.108" style="stroke: none; fill-rule: nonzero; fill: rgb(128, 139, 146); fill-opacity: 1; stroke-width: 1;"/>
  <path d="M -70.533 428.229 C -63.123 428.623 -55.619 428.373 -48.197 428.342 L -48.045 449.072 C -15.178 449.045 17.815 448.412 50.665 449.096 C 50.76 455.826 50.775 462.553 50.713 469.287 C 17.752 470.045 -15.393 469.506 -48.361 469.264 C -48.416 462.564 -48.35 455.865 -48.158 449.166 C -55.638 449.131 -63.119 449.154 -70.596 449.244 C -70.444 442.248 -70.556 435.224 -70.533 428.229 Z M 50.642 428.256 C 58.08 428.444 65.517 428.459 72.955 428.303 C 73.033 435.233 72.877 442.17 72.982 449.096 C 65.564 449.162 58.08 449.424 50.666 449.096 L 50.642 428.256 Z M 50.642 428.256" style="stroke: none; fill-rule: nonzero; fill: rgb(35, 37, 43); fill-opacity: 1; stroke-width: 1;"/>
  <path d="M 73.721 316.596 L 115.807 316.639 C 123.228 316.67 130.674 316.58 138.087 316.776 C 138.033 324.541 138.037 332.303 138.115 340.069 C 138.299 348.838 138.155 357.647 138.162 366.42 L 73.728 366.299 L 73.721 316.596 Z M 73.721 316.596" style="stroke: none; fill-rule: nonzero; fill: rgb(213, 254, 108); fill-opacity: 1; stroke-width: 1;"/>
  <path d="M 115.807 316.639 C 123.228 316.67 130.674 316.58 138.087 316.776 C 138.033 324.541 138.037 332.303 138.115 340.069 C 130.572 340.795 122.619 340.213 115.049 339.975 C 115.576 332.233 115.428 324.405 115.807 316.639 Z M 115.807 316.639" style="stroke: none; fill-rule: nonzero; fill: rgb(255, 255, 255); fill-opacity: 1; stroke-width: 1;"/>
  <path d="M -135.24 316.604 L -95.076 316.662 L -71.236 316.736 C -71.33 324.546 -71.358 332.358 -71.322 340.17 C -71.232 348.787 -71.377 357.42 -71.408 366.041 C -78.878 366.819 -86.74 366.393 -94.252 366.389 L -135.18 366.358 C -135.64 349.826 -135.21 333.154 -135.24 316.604 Z M -135.24 316.604" style="stroke: none; fill-rule: nonzero; fill: rgb(213, 254, 108); fill-opacity: 1; stroke-width: 1;"/>
  <path d="M -95.076 316.662 L -71.236 316.736 C -71.33 324.546 -71.358 332.358 -71.322 340.17 C -79.264 340.248 -87.17 339.951 -95.119 340.201 C -94.279 332.526 -94.901 324.389 -95.076 316.662 Z M -95.076 316.662" style="stroke: none; fill-rule: nonzero; fill: rgb(255, 255, 255); fill-opacity: 1; stroke-width: 1;"/>
  <path d="M 219.65 333.721 L 255.775 333.783 L 255.791 386.24 C 255.83 394.748 255.775 403.268 256.189 411.764 C 244.021 412.186 231.783 411.998 219.603 412.037 L 219.573 386.389 C 219.838 368.842 219.627 351.272 219.65 333.721 Z M 219.65 333.721" style="stroke: none; fill-rule: nonzero; fill: rgb(192, 196, 197); fill-opacity: 1; stroke-width: 1;"/>
  <path d="M 219.572 386.389 C 231.443 385.615 243.904 385.764 255.791 386.24 C 255.83 394.748 255.775 403.268 256.189 411.764 C 244.021 412.186 231.783 411.998 219.603 412.037 L 219.572 386.389 Z M 219.572 386.389" style="stroke: none; fill-rule: nonzero; fill: rgb(128, 139, 146); fill-opacity: 1; stroke-width: 1;"/>
  <path d="M -253.99 333.393 C -250.61 334.608 -223.69 333.565 -217.85 333.584 L -217.9 386.045 C -217.93 394.537 -217.91 403.033 -217.86 411.522 C -229.9 411.6 -241.96 411.365 -254 411.651 C -254.04 403.171 -254.05 394.681 -254.01 386.197 L -253.99 333.393 Z M -253.99 333.393" style="stroke: none; fill-rule: nonzero; fill: rgb(192, 196, 197); fill-opacity: 1; stroke-width: 1;"/>
  <path d="M -217.9 386.045 C -217.93 394.537 -217.91 403.033 -217.86 411.522 C -229.9 411.6 -241.96 411.365 -254 411.651 C -254.04 403.171 -254.05 394.681 -254.01 386.197 C -242 386.201 -229.88 386.517 -217.9 386.045 Z M -217.9 386.045" style="stroke: none; fill-rule: nonzero; fill: rgb(128, 139, 146); fill-opacity: 1; stroke-width: 1;"/>
  <path d="M 219.607 284.385 C 231.747 284.335 243.947 284.025 256.08 284.303 C 255.893 291.977 255.806 299.654 255.818 307.33 C 255.807 316.147 255.885 324.97 255.775 333.783 L 219.65 333.721 C 219.588 320.143 219.611 306.565 219.72 292.983 C 219.662 290.119 219.623 287.253 219.607 284.385 Z M 219.607 284.385" style="stroke: none; fill-rule: nonzero; fill: rgb(231, 232, 232); fill-opacity: 1; stroke-width: 1;"/>
  <path d="M 219.607 284.385 C 231.747 284.335 243.947 284.025 256.08 284.303 C 255.893 291.977 255.806 299.654 255.818 307.33 C 247.416 309.127 229.518 308.072 220.142 307.983 C 220.283 303.221 220.908 297.623 219.721 292.983 C 219.662 290.119 219.623 287.253 219.607 284.385 Z M 219.607 284.385" style="stroke: none; fill-rule: nonzero; fill: rgb(255, 255, 255); fill-opacity: 1; stroke-width: 1;"/>
  <path d="M -254.12 284.412 C -242.02 284.35 -229.92 284.346 -217.83 284.404 L -217.83 307.701 L -217.85 333.584 C -223.69 333.564 -250.61 334.608 -253.99 333.393 C -254.04 322.913 -254.03 312.432 -253.97 301.951 C -254.16 296.107 -254.21 290.259 -254.12 284.412 Z M -254.12 284.412" style="stroke: none; fill-rule: nonzero; fill: rgb(231, 232, 232); fill-opacity: 1; stroke-width: 1;"/>
  <path d="M -254.12 284.412 C -242.02 284.35 -229.92 284.346 -217.83 284.404 L -217.83 307.701 C -227.19 308.795 -243.59 308.139 -253.37 307.338 C -253.5 305.535 -253.71 303.738 -253.97 301.951 C -254.16 296.107 -254.21 290.259 -254.12 284.412 Z M -254.12 284.412" style="stroke: none; fill-rule: nonzero; fill: rgb(255, 255, 255); fill-opacity: 1; stroke-width: 1;"/>
  <path d="M 1747.34 30.239 L 2030.01 30.11 L 2030.01 79.226 L 2077.14 79.355 L 2077.2 222.161 L 2037.2 222.225 L 2036.67 250.798 C 2050.45 250.798 2064.23 250.895 2077.99 251.181 C 2077.65 272.829 2079.74 398.331 2076.18 407.015 L 2070.98 407.526 L 2029.78 407.623 L 2029.84 456.501 L 1746.92 456.406 C 1746.04 398.746 1747.05 340.96 1747.2 283.332 L 1747.34 30.239 Z M 1852.42 365 C 1893.81 364.522 1935.18 364.203 1976.6 364.234 C 1977.99 338.278 1977.2 312.033 1977.11 285.982 L 1852.75 286.206 L 1852.42 365 Z M 1852.78 191.32 L 1976.98 191.224 L 1977.06 123.7 L 1853.3 122.775 C 1853.36 145.601 1853.17 168.461 1852.78 191.32 Z M 837.38 29.696 C 855.03 29.472 872.69 29.506 890.35 29.728 C 890.89 80.982 890.44 132.351 890.41 183.562 C 939.03 183.818 987.69 183.818 1036.35 183.434 C 1037.11 132.351 1036.82 81.174 1036.95 30.079 C 1072.23 29.728 1107.48 29.663 1142.76 29.92 L 1143.11 456.789 C 1116.35 456.118 1089.54 456.501 1062.75 456.406 L 1036.41 456.501 L 1036.7 277.011 L 889.39 276.916 C 889.74 336.809 889.77 396.736 889.42 456.629 L 783.52 456.501 C 782.63 373.683 783.33 290.772 783.36 207.986 C 783.39 148.794 782.15 89.347 784.1 30.11 L 837.38 29.696 Z M 2155.58 129.639 L 2355.5 129.958 L 2355.72 176.953 L 2403.59 176.858 L 2403.95 407.846 L 2354.75 407.846 L 2354.94 456.118 C 2335.34 459.502 2310.6 456.694 2290.59 456.597 L 2156.39 456.501 L 2156.39 407.942 L 2106.28 407.814 L 2106.41 177.145 L 2155.34 177.049 C 2154.85 161.214 2155.35 145.41 2155.58 129.639 Z M 2206.24 364.713 C 2239.59 365.032 2272.93 364.936 2306.23 364.425 C 2306.32 317.11 2305.96 269.732 2306.67 222.353 L 2206.16 222.129 L 2206.24 364.713 Z M 1219.54 129.958 L 1420.44 129.862 L 1420.56 176.571 L 1467.55 176.634 C 1471.02 253.194 1468.56 330.998 1468.54 407.623 L 1419.9 407.814 L 1419.8 456.087 C 1353.91 458.799 1287.05 456.213 1221.04 456.501 L 1220.97 407.91 L 1171.23 407.623 L 1171.33 176.858 L 1219.58 176.761 L 1219.54 129.958 Z M 1269.19 364.617 C 1303.39 365.095 1337.56 365.032 1371.74 364.425 L 1372.04 222.449 L 1268.93 222.225 L 1269.19 364.617 Z M 2536.24 29.663 L 2566.26 29.663 L 2566.45 130.085 C 2602.9 130.053 2639.31 129.767 2675.78 129.255 C 2676.2 160.192 2675.8 191.224 2675.8 222.129 L 2566.5 222.034 C 2565.94 269.732 2566.5 317.334 2566.58 364.936 L 2675.46 364.904 L 2675.61 448.648 C 2675.61 451.424 2675.35 453.309 2674.77 455.926 C 2666.89 459.597 2538.63 456.597 2517.48 456.694 L 2516.97 407.846 L 2468.69 408.1 L 2468.69 222.353 L 2430.79 222.066 C 2430.45 191.417 2430.71 160.767 2430.71 130.085 L 2468.23 129.767 L 2468.36 30.269 L 2536.24 29.663 Z M 1515.58 30.047 C 1548.09 29.856 1580.62 29.728 1613.12 29.856 C 1613.84 63.346 1613.43 96.786 1613.47 130.243 L 1716.77 130.15 L 1716.77 222.066 L 1613.38 221.937 L 1613.71 364.841 C 1647.99 365.095 1682.27 365.095 1716.55 365 L 1716.59 389.838 L 1716.48 456.501 L 1560.64 456.501 L 1560.88 407.718 L 1515.61 407.718 L 1515.73 222.449 L 1478.71 222.353 L 1479.25 130.181 L 1515.73 130.053 L 1515.58 30.047 Z M 1515.58 30.047" style="stroke: none; fill-rule: nonzero; fill: rgb(35, 37, 43); fill-opacity: 1; stroke-width: 1;"/>
</svg>