<svg xmlns="http://www.w3.org/2000/svg" viewBox="135.42 93.58 721.57 808.81"><defs><linearGradient id="a" x1="575.372" x2="410.082" y1="722.614" y2="1364.23" gradientTransform="scale(.48828)" gradientUnits="userSpaceOnUse"><stop offset="0" style="stop-color:#e28017;stop-opacity:1"/><stop offset="1" style="stop-color:#f56c5c;stop-opacity:1"/></linearGradient></defs><path d="m494.652 93.59 40.817-.008.133 40.996-15.602-.176.098 15.286-11.868-.176c.094 19.047-.242 38.18.207 57.21l40.383-.128-.011-48.91 32.043.043c.007 5.628-.04 11.257-.141 16.882l16.414.008-.086 15.817 15.766-.024v32.176c11.488-.016 23.113.312 34.586-.164-.52-24.281-.63-48.824-.164-73.106l15.898.114.047-13.258 18.422.058c.066 11.727.062 23.45-.016 35.176l15.121-.062-.078 15.687 15.356-.117-.032 15.734 15.367-.105c.118 32.004.594 64.098-.125 96.09l11.56.078.046-34.824a752.302 752.302 0 0 1 15.715-.121l-.051 14.82a385.322 385.322 0 0 1 15.469-.102l-.063 111.043 25.157-.047-.051-47.71 33.746-.008-.028 15.472 16.532.075c-.028 39.863.644 79.89-.309 119.738l-16.777-.067c-.164 7.543-.2 15.09-.11 22.633l28.946.012.027 83.39-14.793.06.067 15.94-14.653.122.113 15.629-14.824.074.106 15.465-16.082.023.332 15.121-15.051.024.11 15c-7.669-.012-15.352-.137-23.024-.012v14.781l-34.727-.047v14.164a1171.67 1171.67 0 0 1-17.77-.16c.06 4.88.184 9.77.177 14.649-4.844.582-9.98.246-14.868.23l-25.414-.09c-4.27-.011-9.37-.593-13.472.465-.211.485-.446.938-.551 1.453.39 7.844.121 15.817.137 23.672l-307.325-.047.008-25.508c-7.75-.593-15.726-.27-23.5-.265l-40.863.047.098-14.297-27.762.047.058-14.38c-5.152-.187-10.351.024-15.507.09V660.47c-9.692-.434-19.524-.102-29.227-.008l.215-15.05c-5.262-.161-10.55-.083-15.813-.114l.121-15.281-15.382-.032.265-15.039c-4.613-.57-9.523-.215-14.175-.183l.113-16.172-13.98-.27c.187-5.097.148-10.215.202-15.312-4.972-.086-9.96-.024-14.933-.035.512-22.965-.219-45.977.14-68.95l15.743-.03-.024 13.995 11.883.016-.023-36.758c-4.157-.055-8.32.008-12.48.02.093-4.88.316-9.86-.087-14.723-4.914.398-10.004.144-14.941.16l.015-102.734c1.422-.008 3.555.25 4.758-.508.766-5.29.285-11.227.27-16.59 5.195-.023 10.394.059 15.594.102l-.043-15.66 9.613-.04c-.028-5.578-.16-11.18-.024-16.753l21.786.105-.168 64.867c10.105.07 20.207.055 30.312-.058V359.57a519.296 519.296 0 0 0-12.086.059c.082-4.938.813-10.984-.297-15.758-1.129-.473-2.215-.336-3.41-.285-.871-.816-.64-.313-.68-1.54-.847-26.093-.207-52.405-.195-78.523 5.55-.144 11.106-.18 16.656-.109a943.689 943.689 0 0 1-.007-26.394l15.546-.114c.02-5.035-.007-10.074.067-15.11l31.469-.023-.059 76.575 21.379.03c-.078-25.358-.281-50.745.012-76.105l16.468-.039c-.082-7.5-.27-15.015-.03-22.511l15.335-.032.031-15.601 16.059.09.012-15.332 19.265-.024-.031-13.324c5.637-.14 11.273-.164 16.906-.074v66.922c11.383-.004 22.793.144 34.172-.07l-.012-58.243c5.297-.008 10.602.035 15.899-.031-.176-5.09-.242-10.18-.2-15.274 5.036.02 10.079.094 15.11.043l-.102-14.55 12.93-.059c.012-4.988-.055-9.996.047-14.984l25.867.011c.031-5.027.008-10.05-.07-15.074l20.77-.082Zm0 0" style="stroke:none;fill-rule:nonzero;fill:#23252b;fill-opacity:1"/><path d="m494.652 93.59 40.817-.008.133 40.996-15.602-.176.098 15.286-11.868-.176c.094 19.047-.242 38.18.207 57.21l40.383-.128-.011-48.91 32.043.043c.007 5.628-.04 11.257-.141 16.882l16.414.008-.086 15.817 15.766-.024v32.176c11.488-.016 23.113.312 34.586-.164-.52-24.281-.63-48.824-.164-73.106l15.898.114.047-13.258 18.422.058c.066 11.727.062 23.45-.016 35.176l15.121-.062-.078 15.687 15.356-.117-.032 15.734 15.367-.105c.118 32.004.594 64.098-.125 96.09l11.56.078.046-34.824a752.302 752.302 0 0 1 15.715-.121l-.051 14.82a385.322 385.322 0 0 1 15.469-.102l-.063 111.043 25.157-.047-.051-47.71 33.746-.008-.028 15.472 16.532.075c-.028 39.863.644 79.89-.309 119.738l-16.777-.067c-3.02-.078-14.442-1.296-16.395.48l-.386 2.985c-1.211-9.148-.688-18.785-.688-28.007 0-10.844-.273-21.786.316-32.61-5.18-.047-10.355-.05-15.53-.008l.003 14.79a599.767 599.767 0 0 0-26.773.187l-.086-14.809c-5.934.078-11.86.106-17.793.078.25-5.074.105-10.18.074-15.257l-16.945-.024c-.082-20.11.05-40.223.402-60.328-3.23-.086-6.465-.05-9.7-.062-.109-4.778-.058-9.567-.07-14.34l-15.656-.008c-.031-4.871-.02-9.742.032-14.61l-13.41-.054c-.86-30.75.152-61.547-.47-92.301a375.46 375.46 0 0 0-14.831-.121c-.016 5.07-.063 10.144-.133 15.215l-5.856.054.055 15.57-11.578.169-.184 12.539c-3.332-.02-6.55-.059-9.843-.578-5.258-1.32-15.989-.399-21.942-.395-16.976.102-33.95.098-50.922-.012-17.222.422-34.508.036-51.734-.02-11.547.481-23.297.056-34.863.06l-72.336-.09-48.754.109c-8.825.012-17.899.39-26.688-.281l.14 25.64c-8.413.004-16.894.223-25.296-.113-.828.727-.766.406-.848 1.672a37.45 37.45 0 0 0-.066 2.96c-1.45-.28-1.996-.6-3.36.036-1.421 3.047-.515 6.942-.585 10.238l-16.012-.007-.063 10.277-21.515.402c.09 4.711.12 9.426.281 14.13-9.637-.016-19.29.085-28.918-.06.102-4.996.098-9.996-.012-14.992l-15.363-.066.164 28.348-.36.05c1.067 14.79-.105 31.133.048 46.118-5.27 0-10.559-.09-15.829.078l-.078 15.703-30.812-.031.058-15.942-15.57-.047.086-32.328c-5.05-.117-10.25.074-15.27-.394l-.042-15.66 9.613-.04c-.028-5.578-.16-11.18-.024-16.753l21.786.105-.168 64.867c10.105.07 20.207.055 30.312-.058V359.57a519.296 519.296 0 0 0-12.086.059c.082-4.938.813-10.984-.297-15.758-1.129-.473-2.215-.336-3.41-.285-.871-.816-.64-.313-.68-1.54-.847-26.093-.207-52.405-.195-78.523 5.55-.144 11.106-.18 16.656-.109a943.689 943.689 0 0 1-.007-26.394l15.546-.114c.02-5.035-.007-10.074.067-15.11l31.469-.023-.059 76.575 21.379.03c-.078-25.358-.281-50.745.012-76.105l16.468-.039c-.082-7.5-.27-15.015-.03-22.511l15.335-.032.031-15.601 16.059.09.012-15.332 19.265-.024-.031-13.324c5.637-.14 11.273-.164 16.906-.074v66.922c11.383-.004 22.793.144 34.172-.07l-.012-58.243c5.297-.008 10.602.035 15.899-.031-.176-5.09-.242-10.18-.2-15.274 5.036.02 10.079.094 15.11.043l-.102-14.55 12.93-.059c.012-4.988-.055-9.996.047-14.984l25.867.011c.031-5.027.008-10.05-.07-15.074l20.77-.082Zm0 0" style="stroke:none;fill-rule:nonzero;fill:#e67c25;fill-opacity:1"/><path d="m494.652 93.59 40.817-.008.133 40.996-15.602-.176.098 15.286-11.868-.176c.094 19.047-.242 38.18.207 57.21l40.383-.128-.011-48.91 32.043.043c.007 5.628-.04 11.257-.141 16.882l16.414.008-.086 15.817 15.766-.024v32.176c11.488-.016 23.113.312 34.586-.164-.52-24.281-.63-48.824-.164-73.106l15.898.114.047-13.258 18.422.058c.066 11.727.062 23.45-.016 35.176l15.121-.062-.078 15.687 15.356-.117-.032 15.734 15.367-.105c.118 32.004.594 64.098-.125 96.09l11.56.078.046-34.824a752.302 752.302 0 0 1 15.715-.121l-.051 14.82a385.322 385.322 0 0 1 15.469-.102l-.063 111.043 25.157-.047-.051-47.71 33.746-.008-.028 15.472 16.532.075c-.028 39.863.644 79.89-.309 119.738l-16.777-.067c1.012-14.207.375-28.8.383-43.066l.117-76.555-17.406-.05c-.059 10.828.105 21.636-.051 32.464l-15.844.04-.059 15.933-25.867.055.121-15.852c-5.168-.043-10.34.024-15.504.04.399-9.317-.02-18.801-.023-28.137a4164.84 4164.84 0 0 1 .238-61.7c-3.902-.324-7.761-.277-11.668-.214l-.265 14.585-15.43.028a152.59 152.59 0 0 1 .148-15.703c-5.195.035-10.394.035-15.582 0-.039-31.848-.578-63.805.215-95.637l-15.332.07.051-15.86-15.18.071c-.078-5.246.008-10.492.258-15.734l-12.605.23c-.121-2.52-.094-5.05-.121-7.574l-5.844-.055c.246 19.508.304 39.02.183 58.532l-14.644-.067.078 16.031a1964.9 1964.9 0 0 0-36.227.122l-.007-15.875-15.528-.004V190.77l-16.11.035c-.026-5.36-.034-10.723-.003-16.082l-15.59.14-.082 32.176-15.664.008.004 15.77-41.082.074c-.188-5.258-.297-10.47-.16-15.73-5.211.401-10.61.062-15.844.01l-.059-58.179c5.04.024 10.079.11 15.114.254-.04-4.996-.117-9.996-.23-14.992 4.222-.168 8.452-.227 12.679-.18.094-8.894.113-17.785.062-26.68l-16.144.02-.047 12.676c-9.824-.133-19.64-.188-29.46-.168l.073 14.84-25.656-.051.012 14.684c-4.223-.11-8.465-.047-12.688-.06l.098 15.102c-5.176.067-10.352.008-15.524-.167.301 19.503.047 39.046.043 58.554l-15.722-.113-.04 15.871c-11.593.098-23.183.09-34.777-.027-.14-5.293-.246-10.563-.12-15.864-5.231.133-10.481.02-15.712-.007-.168-12.57-.035-25.16-.027-37.739-6.55-.52-13.3-.285-19.879-.347.016 5.132-.008 10.27-.066 15.402-5.285-.281-10.578-.121-15.867-.043.132 7.559.175 15.117.136 22.676l-15.644-.043-.008 76.496-16.242-.215.031 15.602-22.602-.059c-.168-5.187.032-10.336.23-15.516l-15.62-.058c-.09-20.39-.063-40.785.094-61.176-5.028-.059-10.051-.14-15.079-.25l-.097 26.379a877.86 877.86 0 0 1-15.711.074l.008 79.93c5.289-.094 10.582-.086 15.87.02 1.067 14.788-.105 31.132.048 46.117-5.27 0-10.559-.09-15.829.078l-.078 15.703-30.812-.031.058-15.942-15.57-.047.086-32.328c-5.05-.117-10.25.074-15.27-.394l-.042-15.66 9.613-.04c-.028-5.578-.16-11.18-.024-16.753l21.786.105-.168 64.867c10.105.07 20.207.055 30.312-.058V359.57a519.296 519.296 0 0 0-12.086.059c.082-4.938.813-10.984-.297-15.758-1.129-.473-2.215-.336-3.41-.285-.871-.816-.64-.313-.68-1.54-.847-26.093-.207-52.405-.195-78.523 5.55-.144 11.106-.18 16.656-.109a943.689 943.689 0 0 1-.007-26.394l15.546-.114c.02-5.035-.007-10.074.067-15.11l31.469-.023-.059 76.575 21.379.03c-.078-25.358-.281-50.745.012-76.105l16.468-.039c-.082-7.5-.27-15.015-.03-22.511l15.335-.032.031-15.601 16.059.09.012-15.332 19.265-.024-.031-13.324c5.637-.14 11.273-.164 16.906-.074v66.922c11.383-.004 22.793.144 34.172-.07l-.012-58.243c5.297-.008 10.602.035 15.899-.031-.176-5.09-.242-10.18-.2-15.274 5.036.02 10.079.094 15.11.043l-.102-14.55 12.93-.059c.012-4.988-.055-9.996.047-14.984l25.867.011c.031-5.027.008-10.05-.07-15.074l20.77-.082Zm0 0" style="stroke:none;fill-rule:nonzero;fill:#23252b;fill-opacity:1"/><path d="m469.188 149.477 6.796.03c-.52 9.891-.3 19.86-.312 29.766-.055 14.622-.035 29.247.058 43.868 5.301-.461 10.739-.57 16.043-.078l.032 16.042c5.312.13 10.632.176 15.945.149l.04 15.648c13.698.13 27.405.125 41.105-.004.125-5.308.324-10.628.308-15.941 5.332 0 10.688-.105 16.016.102-.063-5.309-.239-10.645-.032-15.95 5.22.004 10.446-.05 15.668.032-.261 10.43.153 20.851.153 31.28 5.066.005 10.207-.171 15.25.333-.016 3.48-.14 6.996.133 10.465-5.414-.02-11.203-.45-16.567.304-17.222.422-34.508.036-51.734-.02-10.715-1.437-22.59-.284-33.445-.273-24.852.036-49.774.22-74.618-.132l.145-10.184c3.652-.047 7.308-.125 10.96-.125.032-5.473-.03-10.965.153-16.43l7.203.055c-.011-16.601.371-33.3-.152-49.89l12.422-.028-.031-24.336 18.289-.058ZM335.055 238.383c.047-3.54-1.258-11.164.304-14.168.664-1.274 1.016-1.246 2.309-1.559l.785.524c.563 4.965.02 10.191.102 15.203 4.71-.106 9.422-.16 14.136-.164l-.011 16.617 16.851-.02.094 10.454c-7.93-.141-16.293-.743-24.176.03l.14 25.641c-8.413.004-16.894.223-25.296-.113.598-6.223.242-12.785.23-19.039l-.05-33.496Zm0 0" style="stroke:none;fill-rule:nonzero;fill:#f6b646;fill-opacity:1"/><path d="M315.434 305.734c.07-3.296-.836-7.191.586-10.238 1.363-.637 1.91-.316 3.359-.035l.031 19.945-12.887.035c-.062 8.786-.058 17.57.012 26.356l-25.66.055c-.145 19.09-.16 38.183-.043 57.277.035 9.894.336 19.86.063 29.742-12.407.188-24.813.215-37.22.09.063 8.238.071 16.476.028 24.715l-24.984.015-.008 127.801c8.355.04 16.726-.023 25.078.145l-.133 24.945 37.223.29c1.2 16.796-.004 34.097.23 50.964 12.774.258 25.625-.18 38.375.348.086 10.132.575 20.375.008 30.496l-37.226.133-.032-14.168c-9.48-.06-18.96-.016-28.441.125l.066-14.59h-15.586l.043-15.336a653.987 653.987 0 0 0-29.164.172c.059-5.09.192-10.192.16-15.282-5.261.012-10.527-.027-15.789.036.184-5.153.258-10.31.22-15.465-4.856.035-9.825-.145-14.661.304l-.547-.523c-.73-4.98-.215-10.8.04-15.828-4.68-.086-9.333.031-14.012.18l-.004-15.711c-4.559-.207-9.141-.051-13.7.015l-.039-39.34c4.375-.113 8.754.012 13.13.075l.222 11.21 28.14-.14c-.046-8.867-.03-17.735.043-26.598-4.535-.074-9.085.02-13.625.028-.02-12.547-.351-25.215.192-37.747-5.129-.09-10.274.036-15.402.063-.133-4.711-.157-9.426-.07-14.14l-12.54.148c.426-10.836.137-21.73.106-32.578l.007-41.11c-.035-7.363-1.046-22.05.145-28.535 1.434-.828 3.559-.558 5.2-.555l-.098-16.55c5.02.468 10.218.277 15.27.394l-.087 32.328 15.57.047-.058 15.942 30.812.03.078-15.702c5.27-.168 10.56-.078 15.829-.078-.153-14.985 1.02-31.329-.047-46.118l.36-.05-.165-28.348 15.363.066c.11 4.996.114 9.996.012 14.993 9.629.144 19.281.043 28.918.058-.16-4.703-.191-9.418-.281-14.129l21.515-.402.063-10.277Zm0 0" style="stroke:none;fill-rule:nonzero;fill:url(#a)"/><path d="M315.434 305.734c.07-3.296-.836-7.191.586-10.238 1.363-.637 1.91-.316 3.359-.035l.031 19.945-12.887.035c-.062 8.786-.058 17.57.012 26.356l-25.66.055c-.145 19.09-.16 38.183-.043 57.277.035 9.894.336 19.86.063 29.742-12.407.188-24.813.215-37.22.09.063 8.238.071 16.476.028 24.715l-24.984.015-.008 127.801c8.355.04 16.726-.023 25.078.145l-.133 24.945 37.223.29c-1.004 11.335-.168 24.296-.16 35.792-8.953-.101-17.918-.023-26.875-.031.008-4.117.101-8.238.156-12.352l-15.258-.05c-.328-4.977-.387-9.899-.367-14.883l-14.39.05c.023-4.261-.196-8.543-.313-12.804h-14.277l.042-10.223c-3.085-.05-6.054-.008-9.128.328.015-3.37-.032-6.742-.133-10.117-2.73.25-5.477.34-8.215.465l-.059-16.125c5.086-.16 10.137-.274 15.223-.16l-.094-64.84c-1.957.328-3.703.664-5.687.387-1.715-1.747-.867-21.86-.852-25.657-3.695.04-7.398-.074-11.09-.129-.144-5.054-.007-10.132.032-15.191l-18.493-.027c1.118-16.434.16-33.614.024-50.106l8.472-.02c-.343 3.184-.207 6.493-.222 9.7l12.222.078c.29 4.52.27 9.05.293 13.578 13.852.621 27.84.367 41.711.352 0-4.86-.007-9.664.493-14.508l9.261-.223.028-14.875 14.574-.086c-.004-15.129.828-30.824-.36-45.894l-8.347.008c.047-5.184.058-10.372.031-15.559a513.736 513.736 0 0 0-15.125.016l-.164-28.348 15.363.066c.11 4.996.114 9.996.012 14.993 9.629.144 19.281.043 28.918.058-.16-4.703-.191-9.418-.281-14.129l21.515-.402.063-10.277Zm0 0" style="stroke:none;fill-rule:nonzero;fill:#f6b646;fill-opacity:1"/><path d="M345.746 291.316c10.031-.058 20.067-.015 30.098.13.101 12.132.11 24.269.027 36.406.621 44.312-.031 88.718-.066 133.046l-38.43.024-.066 100.05c12.765-.074 25.644.313 38.398-.214l.106 77.504c-.012 13.449.304 26.96-.165 40.394l-29.613.04c.02-7.481-.023-14.962-.12-22.442l-11.817-.035-.086-23.844-27.2-.035-.277-290.543 16.746-.031 11.125-.043-.18-25.828 11.622.054c.172-8.199-.043-16.433-.102-24.633Zm0 0" style="stroke:none;fill-rule:nonzero;fill:#c0c4c5;fill-opacity:1"/><path d="M345.746 291.316c10.031-.058 20.067-.015 30.098.13.101 12.132.11 24.269.027 36.406-1.55 7.355-.52 21.144-.473 29.207-7.328-.024-14.675-.16-21.996.074.055 13.957.317 27.969.024 41.922l-30.207.148.062-57.437 11.125-.043-.18-25.828 11.622.054c.172-8.199-.043-16.433-.102-24.633Zm0 0" style="stroke:none;fill-rule:nonzero;fill:#e7e8e8;fill-opacity:1"/><path d="M664.008 315.852c.254 8.632.015 17.308-.055 25.949 9.242-.059 18.485-.004 27.723.168-.422 35.687-.114 71.406-.121 107.094l-.075 182.91-27.457.14a513.89 513.89 0 0 0-.277 24.168c-3.746.028-7.543-.074-11.281.16.133 15.711-.215 31.446.2 47.149l35.273-.035c6.171-.004 12.945-.524 19.039.293-4.844.582-9.98.246-14.868.23l-25.414-.09c-4.27-.011-9.37-.593-13.472.465-.211.485-.446.938-.551 1.453-.078-1.101.11-1.332-.664-2.172-9.465-.863-19.488-.156-29.02-.12-.277-13.716 0-27.485-.004-41.2l-.125-101.555c12.97.121 25.938-.074 38.907.164.504-33.351.007-66.765.011-100.128l-38.675.03-.102-61.66 20.547-.085.015-21.48c6.516-.27 13.055-.118 19.57-.075.13-14.656-.015-29.25.321-43.906.133-5.946-.098-11.953.555-17.867Zm0 0" style="stroke:none;fill-rule:nonzero;fill:#808b92;fill-opacity:1"/><path d="M680.227 222.96a375.46 375.46 0 0 1 14.832.122c.62 30.754-.391 61.55.468 92.3l13.41.055c-.05 4.868-.062 9.739-.03 14.61l15.655.008c.012 4.773-.039 9.562.07 14.34 3.235.011 6.47-.024 9.7.062a2798.019 2798.019 0 0 0-.402 60.328l16.945.024c.031 5.078.176 10.183-.074 15.257 5.933.028 11.86 0 17.793-.078l.086 14.809a599.767 599.767 0 0 1 26.773-.188l-.004-14.789c5.176-.043 10.352-.039 15.531.008-.59 10.824-.316 21.766-.316 32.61 0 9.222-.523 18.859.688 28.007.308 3.188.226 6.387.207 9.59-.059 12.86-.051 25.727.027 38.594l2.437.316c.239.274.57.485.723.813.887 1.965.207 32.484.2 37.254l-7.18-.094a852.792 852.792 0 0 0-.149 16.121l-9.36.008c-.054 3.047-.167 6.11-.148 9.156l-16.007.008c-.028 3.453-.043 6.898-.227 10.348l-15.273.011c-.04 4.22-.024 8.45-.149 12.668l-14.64-.011a396.506 396.506 0 0 0-.274 15.246 292.36 292.36 0 0 0-13.726.093l-.004 8.254c-4.86-.035-9.743.028-14.598-.203-.082 1.758.203 3.965-1.117 5.309-.805.816-1.57 1.054-2.664 1.078-1.114-.746-1.844-.984-2.184-2.367-.183-.739-.098-1.739-.098-2.504a2550.392 2550.392 0 0 1-.062-33.254c12.465.016 24.93-.059 37.394-.23l-.03-25.274 24.921.04-.035-127.661-24.926.09.02-24.742-37.102-.036c-.07-29.066-.355-58.156-.043-87.222-8.488-.153-16.996-.04-25.488-.047l.074-26.277-12.808.046c-.336-8.18-.079-16.445.023-24.632l-26.488.097c.254-8.351.093-16.742.09-25.101 3.292.52 6.511.558 9.843.578l.184-12.54 11.578-.167-.055-15.57 5.856-.055c.07-5.07.117-10.145.133-15.215Zm0 0" style="stroke:none;fill-rule:nonzero;fill:#f6b646;fill-opacity:1"/><path d="M795.492 490.21c5.324.028 10.766.306 16.067-.175-.059 12.86-.051 25.727.027 38.594-5.172.637-10.902.195-16.14.176-.071-12.867.327-25.727.046-38.594Zm0 0" style="stroke:none;fill-rule:nonzero;fill:#e67c25;fill-opacity:1"/><path d="M827.57 515.816c4.742-.078 9.48-.152 14.227 0-.332 22.266-.668 44.797-.016 67.051l-14.672.117c-.007 5.235-.097 10.485.024 15.715-4.942.086-9.91.074-14.848.38.04 5.081-.023 10.187.172 15.265a582.283 582.283 0 0 0-16.52.156c.016 5.05-.199 10.21.29 15.234-4.86-.007-9.711.047-14.567.164l.063 14.977c-7.676-.523-15.426-.234-23.121-.242l.195 15.539-34.055.031-.125 14.27c-6.133-.051-12.273-.168-18.406-.137-.02 4.797-.156 9.625.039 14.414-9.2-.375-18.395-.023-27.586-.207a1157.788 1157.788 0 0 1-.09-30.375l38.395.074c-.008-5.992-.258-12.144.18-18.11 0 .766-.087 1.766.097 2.505.34 1.383 1.07 1.62 2.184 2.367 1.093-.024 1.86-.262 2.664-1.078 1.32-1.344 1.035-3.551 1.117-5.309 4.855.23 9.738.168 14.598.203l.004-8.254a292.36 292.36 0 0 1 13.726-.093c-.008-5.086.086-10.172.274-15.246l14.64.011c.125-4.218.11-8.449.149-12.668l15.273-.011c.184-3.45.2-6.895.227-10.348l16.007-.008c-.02-3.047.094-6.11.149-9.156l9.36-.008c0-5.375.046-10.75.148-16.121l7.18.094c.007-4.77.687-35.29-.2-37.254-.152-.328-.484-.54-.723-.813l13.555-.082Zm0 0" style="stroke:none;fill-rule:nonzero;fill:#f26e53;fill-opacity:1"/><path d="M623.031 291.273c9.824.157 19.672-.046 29.504-.12a929.43 929.43 0 0 0-.183 24.695l11.656.004c-.653 5.914-.422 11.921-.555 17.867-.336 14.656-.191 29.25-.32 43.906-6.516-.043-13.055-.195-19.57.074l-.016 21.48-20.547.087c-.402-35.977 0-72.008.031-107.993Zm0 0" style="stroke:none;fill-rule:nonzero;fill:#c0c4c5;fill-opacity:1"/><path d="m346.035 678.695 29.613-.039c.137 8.344.106 16.696.145 25.043a2749.31 2749.31 0 0 0-30.035.012c.004-8.324-.156-16.7.277-25.016Zm0 0" style="stroke:none;fill-rule:nonzero;fill:#808b92;fill-opacity:1"/><path d="M387.152 291.45c9.368-.895 19.207-.364 28.633-.352l51.274.062 101.09.113c14.925.051 29.867-.195 44.796.137.809 56.461.004 113.012.098 169.485l-66.758.02a2725.69 2725.69 0 0 0-.215 59.003c.004 13.64-.39 27.445.227 41.066l66.594.024-.012 117.765-.031 24.836-227.086.086-.07-24.968-.032-117.872 66.7.063-.087-100.074-66.496.035.067-114.473c-.25-11.265-.078-22.562-.078-33.832 0-6.855-.383-13.96.14-20.789Zm0 0" style="stroke:none;fill-rule:nonzero;fill:#c0c4c5;fill-opacity:1"/><path d="M385.844 346.406c-.25-11.265-.078-22.562-.078-33.832 0-6.855-.383-13.96.14-20.789l1.246-.336c6.825.492 13.801.215 20.645.203l32.898-.015 106.211.011.008 40.25-114.012-.086c.137 8.375.176 16.754.106 25.133-15.551.035-31.13-.218-46.676-.011-.016-3.422.266-7.2-.488-10.528Zm0 0" style="stroke:none;fill-rule:nonzero;fill:#e7e8e8;fill-opacity:1"/><path d="M385.691 678.727c32.704-.352 65.442-.02 98.149-.02l129.039.066-.031 24.836-227.086.086Zm0 0" style="stroke:none;fill-rule:nonzero;fill:#808b92;fill-opacity:1"/><path d="M427.598 597.848c7.41.394 14.914.144 22.336.113l.152 20.73c32.867-.027 65.86-.66 98.71.024.095 6.73.11 13.457.048 20.191-32.961.758-66.106.219-99.074-.023-.055-6.7.011-13.399.203-20.098-7.48-.035-14.961-.012-22.438.078.152-6.996.04-14.02.063-21.015ZM548.773 597.875c7.438.188 14.875.203 22.313.047.078 6.93-.078 13.867.027 20.793-7.418.066-14.902.328-22.316 0Zm0 0" style="stroke:none;fill-rule:nonzero;fill:#23252b;fill-opacity:1"/><path d="m571.852 486.215 42.086.043c7.421.031 14.867-.059 22.28.137-.054 7.765-.05 15.527.028 23.293.184 8.769.04 17.578.047 26.351l-64.434-.121Zm0 0" style="stroke:none;fill-rule:nonzero;fill:#d5fe6c;fill-opacity:1"/><path d="M613.938 486.258c7.421.031 14.867-.059 22.28.137-.054 7.765-.05 15.527.028 23.293-7.543.726-15.496.144-23.066-.094.527-7.742.379-15.57.758-23.336Zm0 0" style="stroke:none;fill-rule:nonzero;fill:#fff;fill-opacity:1"/><path d="m362.895 486.223 40.16.058 23.84.074c-.094 7.81-.122 15.622-.086 23.434.09 8.617-.055 17.25-.086 25.871-7.47.778-15.332.352-22.844.348l-40.926-.031c-.465-16.532-.031-33.204-.058-49.754Zm0 0" style="stroke:none;fill-rule:nonzero;fill:#d5fe6c;fill-opacity:1"/><path d="m403.055 486.281 23.84.074c-.094 7.81-.122 15.622-.086 23.434-7.942.078-15.848-.219-23.797.031.84-7.675.218-15.812.043-23.539Zm0 0" style="stroke:none;fill-rule:nonzero;fill:#fff;fill-opacity:1"/><path d="m717.781 503.34 36.125.062.016 52.457c.039 8.508-.016 17.028.398 25.524-12.168.422-24.406.234-36.586.273l-.03-25.648c.265-17.547.054-35.117.077-52.668Zm0 0" style="stroke:none;fill-rule:nonzero;fill:#c0c4c5;fill-opacity:1"/><path d="M717.703 556.008c11.871-.774 24.332-.625 36.219-.149.039 8.508-.016 17.028.398 25.524-12.168.422-24.406.234-36.586.273Zm0 0" style="stroke:none;fill-rule:nonzero;fill:#808b92;fill-opacity:1"/><path d="M244.137 503.012c3.383 1.215 30.308.172 36.14.191l-.043 52.461c-.03 8.492-.015 16.988.04 25.477-12.044.078-24.102-.157-36.141.129-.047-8.48-.051-16.97-.008-25.454Zm0 0" style="stroke:none;fill-rule:nonzero;fill:#c0c4c5;fill-opacity:1"/><path d="M280.234 555.664c-.03 8.492-.015 16.988.04 25.477-12.044.078-24.102-.157-36.141.129-.047-8.48-.051-16.97-.008-25.454 12.004.004 24.121.32 36.11-.152Zm0 0" style="stroke:none;fill-rule:nonzero;fill:#808b92;fill-opacity:1"/><path d="M717.738 454.004c12.14-.05 24.34-.36 36.473-.082a887.043 887.043 0 0 0-.262 23.027c-.011 8.817.067 17.64-.043 26.453l-36.125-.062c-.062-13.578-.039-27.156.07-40.738-.058-2.864-.097-5.73-.113-8.598Zm0 0" style="stroke:none;fill-rule:nonzero;fill:#e7e8e8;fill-opacity:1"/><path d="M717.738 454.004c12.14-.05 24.34-.36 36.473-.082a887.043 887.043 0 0 0-.262 23.027c-8.402 1.797-26.3.742-35.676.653.141-4.762.766-10.36-.421-15-.059-2.864-.098-5.73-.114-8.598Zm0 0" style="stroke:none;fill-rule:nonzero;fill:#fff;fill-opacity:1"/><path d="M244.016 454.031c12.097-.062 24.195-.066 36.289-.008l-.008 23.297-.02 25.883c-5.832-.02-32.757 1.024-36.14-.191-.047-10.48-.04-20.961.02-31.442a364.632 364.632 0 0 1-.141-17.539Zm0 0" style="stroke:none;fill-rule:nonzero;fill:#e7e8e8;fill-opacity:1"/><path d="M244.016 454.031c12.097-.062 24.195-.066 36.289-.008l-.008 23.297c-9.36 1.094-25.754.438-35.54-.363a70.967 70.967 0 0 0-.6-5.387 364.632 364.632 0 0 1-.141-17.539Zm0 0" style="stroke:none;fill-rule:nonzero;fill:#fff;fill-opacity:1"/><path d="m508.613 768.46 88.54-.015.003 15.375 14.758.024.024 44.75-12.532.015-.168 8.953c4.317-.003 8.63.032 12.942.098-.106 6.793.554 46.11-.57 48.809l-1.626.187-12.898.02.016 15.3-88.622-.027c-.277-18.043.043-36.144.09-54.191Zm32.914 104.864c12.965-.164 25.93-.242 38.899-.23.433-8.133.191-16.375.156-24.52l-38.95.055Zm.114-54.402 38.902-.031.023-21.141-38.765-.29c.02 7.153-.035 14.306-.16 21.462ZM223.598 768.316c5.535-.07 11.066-.066 16.597.004.164 16.055.028 32.125.016 48.18 15.234.086 30.473.078 45.707-.035.246-16.004.152-32.031.191-48.035a1874.47 1874.47 0 0 1 33.141-.043l.113 133.699c-8.383-.211-16.785-.117-25.175-.133l-8.25.02.09-56.203-46.137-.024c.113 18.762.117 37.52.007 56.285l-33.171-.039c-.278-25.941-.059-51.91-.047-77.851.011-18.532-.375-37.172.23-55.696ZM636.484 799.605l62.618.09.07 14.72 14.988-.032.117 72.37h-15.41l.063 15.118c-6.14 1.059-13.89.184-20.16.156l-42.028-.043v-15.203l-15.703-.062.047-72.23 15.32-.044c-.152-4.945.008-9.906.078-14.84Zm15.864 73.641c10.445.094 20.886.067 31.324-.09.031-14.836-.086-29.68.14-44.508l-31.488-.078ZM343.3 799.703l62.923-.023.039 14.633 14.718.023c1.09 23.976.317 48.328.31 72.344l-15.235.054-.032 15.118c-20.636.843-41.578.03-62.25.136l-.023-15.215-15.582-.101.035-72.281 15.11-.016Zm15.552 73.508c10.707.152 21.414.129 32.117-.066l.097-44.473-32.296-.07ZM755.707 768.3l9.414-.003.05 31.453c11.415-.023 22.833-.113 34.247-.266.144 9.684.016 19.403.016 29.094l-34.243-.031c-.171 14.922-.004 29.851.028 44.77l34.101-.012.055 26.23c0 .852-.098 1.461-.273 2.281-2.457 1.149-42.637.2-49.262.235l-.156-15.297-15.13.082v-58.207l-11.866-.07c-.106-9.594-.028-19.204-.028-28.801l11.754-.102.035-31.183ZM436.02 768.406c10.187-.066 20.37-.082 30.558-.047.223 10.47.094 20.961.11 31.438l32.351-.035v28.797l-32.387-.043.106 44.77c10.738.07 21.472.081 32.21.038l.012 7.778-.03 20.894h-48.813l.078-15.297-14.18.004.035-58.039-11.593-.027.168-28.856 11.425-.047Zm0 0" style="stroke:none;fill-rule:nonzero;fill:#23252b;fill-opacity:1"/></svg>