<svg xmlns="http://www.w3.org/2000/svg" viewBox="-312.24 -280.93 721.58 635.99">
  <defs>
    <linearGradient id="a" x1="575.372" x2="410.082" y1="722.614" y2="1364.23" gradientTransform="matrix(0.48828, 0, 0, 0.48828, -447.660828, -374.512939)" gradientUnits="userSpaceOnUse">
      <stop offset="0" style="stop-color:#e28017;stop-opacity:1"/>
      <stop offset="1" style="stop-color:#f56c5c;stop-opacity:1"/>
    </linearGradient>
  </defs>
  <path d="M 46.991 -280.92 L 87.808 -280.93 L 87.941 -239.94 L 72.339 -240.11 L 72.437 -224.82 L 60.569 -225 C 60.663 -205.95 60.327 -186.82 60.776 -167.79 L 101.159 -167.92 L 101.148 -216.83 L 133.191 -216.79 C 133.198 -211.16 133.151 -205.53 133.05 -199.9 L 149.464 -199.9 L 149.378 -184.08 L 165.144 -184.1 L 165.144 -151.93 C 176.632 -151.94 188.257 -151.62 199.73 -152.09 C 199.21 -176.37 199.1 -200.91 199.566 -225.2 L 215.464 -225.08 L 215.511 -238.34 L 233.933 -238.28 C 233.999 -226.56 233.995 -214.83 233.917 -203.11 L 249.038 -203.17 L 248.96 -187.48 L 264.316 -187.6 L 264.284 -171.87 L 279.651 -171.97 C 279.769 -139.97 280.245 -107.87 279.526 -75.88 L 291.086 -75.802 L 291.132 -110.63 C 296.37 -110.72 301.609 -110.76 306.847 -110.75 L 306.796 -95.927 C 311.951 -96.064 317.109 -96.098 322.265 -96.029 L 322.202 15.014 L 347.359 14.967 L 347.308 -32.743 L 381.054 -32.751 L 381.026 -17.279 L 397.558 -17.204 C 397.53 22.659 398.202 62.686 397.249 102.534 L 380.472 102.467 C 380.308 110.01 380.272 117.557 380.362 125.1 L 409.308 125.112 L 409.335 208.502 L 394.542 208.562 L 394.609 224.502 L 379.956 224.624 L 380.069 240.253 L 365.245 240.327 L 365.351 255.792 L 349.269 255.815 L 349.601 270.936 L 334.55 270.96 L 334.66 285.96 C 326.991 285.948 319.308 285.823 311.636 285.948 L 311.636 300.729 L 276.909 300.682 L 276.909 314.846 C 270.985 314.838 265.062 314.784 259.139 314.686 C 259.199 319.566 259.323 324.456 259.316 329.335 C 254.472 329.917 249.336 329.581 244.448 329.565 L 219.034 329.475 C 214.764 329.464 209.664 328.882 205.562 329.94 C 205.351 330.425 205.116 330.878 205.011 331.393 C 205.401 339.237 205.132 347.21 205.148 355.065 L -102.18 355.018 L -102.17 329.51 C -109.92 328.917 -117.89 329.24 -125.67 329.245 L -166.53 329.292 L -166.43 314.995 L -194.2 315.042 L -194.14 300.662 C -199.29 300.475 -204.49 300.686 -209.65 300.752 L -209.65 285.957 C -219.34 285.523 -229.17 285.855 -238.87 285.949 L -238.66 270.899 C -243.92 270.738 -249.21 270.816 -254.47 270.785 L -254.35 255.504 L -269.73 255.472 L -269.47 240.433 C -274.08 239.863 -278.99 240.218 -283.64 240.25 L -283.53 224.078 L -297.51 223.808 C -297.32 218.711 -297.36 213.593 -297.31 208.496 C -302.28 208.41 -307.27 208.472 -312.24 208.461 C -311.73 185.496 -312.46 162.484 -312.1 139.511 L -296.36 139.481 L -296.38 153.476 L -284.5 153.492 L -284.52 116.734 C -288.68 116.679 -292.84 116.742 -297 116.754 C -296.91 111.874 -296.68 106.894 -297.09 102.031 C -302 102.429 -307.09 102.175 -312.03 102.191 L -312.01 -0.543 C -310.59 -0.551 -308.46 -0.293 -307.25 -1.051 C -306.49 -6.341 -306.97 -12.278 -306.99 -17.641 C -301.79 -17.664 -296.59 -17.582 -291.39 -17.539 L -291.43 -33.199 L -281.82 -33.239 C -281.85 -38.817 -281.98 -44.419 -281.85 -49.992 L -260.06 -49.887 L -260.23 14.98 C -250.12 15.05 -240.02 15.035 -229.91 14.922 L -229.91 -14.943 C -233.94 -14.97 -237.97 -14.95 -242 -14.884 C -241.92 -19.822 -241.19 -25.868 -242.3 -30.642 C -243.43 -31.115 -244.51 -30.978 -245.71 -30.927 C -246.58 -31.743 -246.35 -31.24 -246.39 -32.467 C -247.24 -58.56 -246.59 -84.872 -246.58 -110.99 C -241.03 -111.13 -235.48 -111.17 -229.93 -111.1 C -230.05 -119.9 -230.06 -128.69 -229.93 -137.49 L -214.39 -137.61 C -214.37 -142.64 -214.4 -147.68 -214.32 -152.72 L -182.85 -152.74 L -182.91 -76.165 L -161.53 -76.135 C -161.61 -101.49 -161.81 -126.88 -161.52 -152.24 L -145.05 -152.28 C -145.13 -159.78 -145.32 -167.29 -145.08 -174.79 L -129.75 -174.82 L -129.72 -190.42 L -113.66 -190.33 L -113.64 -205.66 L -94.38 -205.69 L -94.411 -219.01 C -88.774 -219.15 -83.138 -219.18 -77.505 -219.09 L -77.505 -152.16 C -66.122 -152.17 -54.712 -152.02 -43.333 -152.24 L -43.345 -210.48 C -38.048 -210.49 -32.743 -210.44 -27.446 -210.51 C -27.622 -215.6 -27.688 -220.69 -27.646 -225.78 C -22.61 -225.76 -17.567 -225.69 -12.536 -225.74 L -12.638 -240.29 L 0.292 -240.35 C 0.304 -245.34 0.237 -250.34 0.339 -255.33 L 26.206 -255.32 C 26.237 -260.35 26.214 -265.37 26.136 -270.4 L 46.906 -270.48 L 46.991 -280.92 Z M 46.991 -280.92" style="stroke: none; fill-rule: nonzero; fill: rgb(35, 37, 43); fill-opacity: 1; stroke-width: 1;"/>
  <path d="M 46.991 -280.92 L 87.808 -280.93 L 87.941 -239.94 L 72.339 -240.11 L 72.437 -224.82 L 60.569 -225 C 60.663 -205.95 60.327 -186.82 60.776 -167.79 L 101.159 -167.92 L 101.148 -216.83 L 133.191 -216.79 C 133.198 -211.16 133.151 -205.53 133.05 -199.9 L 149.464 -199.9 L 149.378 -184.08 L 165.144 -184.1 L 165.144 -151.93 C 176.632 -151.94 188.257 -151.62 199.73 -152.09 C 199.21 -176.37 199.1 -200.91 199.566 -225.2 L 215.464 -225.08 L 215.511 -238.34 L 233.933 -238.28 C 233.999 -226.56 233.995 -214.83 233.917 -203.11 L 249.038 -203.17 L 248.96 -187.48 L 264.316 -187.6 L 264.284 -171.87 L 279.651 -171.97 C 279.769 -139.97 280.245 -107.87 279.526 -75.88 L 291.086 -75.802 L 291.132 -110.63 C 296.37 -110.72 301.609 -110.76 306.847 -110.75 L 306.796 -95.927 C 311.951 -96.064 317.109 -96.098 322.265 -96.029 L 322.202 15.014 L 347.359 14.967 L 347.308 -32.743 L 381.054 -32.751 L 381.026 -17.279 L 397.558 -17.204 C 397.53 22.659 398.202 62.686 397.249 102.534 L 380.472 102.467 C 377.452 102.389 366.03 101.171 364.077 102.947 L 363.691 105.932 C 362.48 96.784 363.003 87.147 363.003 77.925 C 363.003 67.081 362.73 56.139 363.319 45.315 C 358.139 45.268 352.964 45.265 347.789 45.307 L 347.792 60.097 C 338.868 59.96 329.941 60.023 321.019 60.284 L 320.933 45.475 C 314.999 45.553 309.073 45.581 303.14 45.553 C 303.39 40.479 303.245 35.373 303.214 30.296 L 286.269 30.272 C 286.187 10.162 286.319 -9.951 286.671 -30.056 C 283.441 -30.142 280.206 -30.106 276.971 -30.118 C 276.862 -34.896 276.913 -39.685 276.901 -44.458 L 261.245 -44.466 C 261.214 -49.337 261.225 -54.208 261.277 -59.076 L 247.867 -59.13 C 247.007 -89.88 248.019 -120.68 247.397 -151.43 C 242.455 -151.57 237.51 -151.61 232.566 -151.55 C 232.55 -146.48 232.503 -141.41 232.433 -136.34 L 226.577 -136.28 L 226.632 -120.71 L 215.054 -120.54 L 214.87 -108 C 211.538 -108.03 208.32 -108.06 205.027 -108.58 C 199.769 -109.9 189.038 -108.98 183.085 -108.98 C 166.109 -108.88 149.135 -108.88 132.163 -108.99 C 114.941 -108.57 97.655 -108.95 80.429 -109.01 C 68.882 -108.53 57.132 -108.95 45.566 -108.95 L -26.77 -109.04 L -75.524 -108.93 C -84.349 -108.92 -93.423 -108.54 -102.21 -109.21 L -102.07 -83.572 C -110.48 -83.568 -118.97 -83.349 -127.37 -83.685 C -128.2 -82.958 -128.13 -83.279 -128.22 -82.013 C -128.28 -81.028 -128.3 -80.04 -128.28 -79.053 C -129.73 -79.333 -130.28 -79.653 -131.64 -79.017 C -133.06 -75.97 -132.16 -72.075 -132.23 -68.779 L -148.24 -68.786 L -148.3 -58.509 L -169.82 -58.107 C -169.73 -53.396 -169.7 -48.681 -169.54 -43.977 C -179.17 -43.993 -188.83 -43.892 -198.45 -44.037 C -198.35 -49.033 -198.36 -54.033 -198.47 -59.029 L -213.83 -59.095 L -213.66 -30.747 L -214.03 -30.697 C -212.96 -15.907 -214.13 0.436 -213.98 15.421 C -219.25 15.421 -224.54 15.331 -229.81 15.499 L -229.88 31.202 L -260.7 31.171 L -260.64 15.229 L -276.21 15.182 L -276.12 -17.146 C -281.17 -17.263 -286.37 -17.072 -291.39 -17.54 L -291.43 -33.2 L -281.82 -33.24 C -281.85 -38.818 -281.98 -44.42 -281.85 -49.993 L -260.06 -49.888 L -260.23 14.979 C -250.12 15.049 -240.02 15.034 -229.91 14.921 L -229.91 -14.943 C -233.94 -14.97 -237.97 -14.95 -242 -14.884 C -241.92 -19.822 -241.19 -25.868 -242.3 -30.642 C -243.43 -31.115 -244.51 -30.978 -245.71 -30.927 C -246.58 -31.743 -246.35 -31.24 -246.39 -32.467 C -247.24 -58.56 -246.59 -84.872 -246.58 -110.99 C -241.03 -111.13 -235.48 -111.17 -229.93 -111.1 C -230.05 -119.9 -230.06 -128.69 -229.93 -137.49 L -214.39 -137.61 C -214.37 -142.64 -214.4 -147.68 -214.32 -152.72 L -182.85 -152.74 L -182.91 -76.165 L -161.53 -76.135 C -161.61 -101.49 -161.81 -126.88 -161.52 -152.24 L -145.05 -152.28 C -145.13 -159.78 -145.32 -167.29 -145.08 -174.79 L -129.75 -174.82 L -129.72 -190.42 L -113.66 -190.33 L -113.64 -205.66 L -94.38 -205.69 L -94.411 -219.01 C -88.774 -219.15 -83.138 -219.18 -77.505 -219.09 L -77.505 -152.16 C -66.122 -152.17 -54.712 -152.02 -43.333 -152.24 L -43.345 -210.48 C -38.048 -210.49 -32.743 -210.44 -27.446 -210.51 C -27.622 -215.6 -27.688 -220.69 -27.646 -225.78 C -22.61 -225.76 -17.567 -225.69 -12.536 -225.74 L -12.638 -240.29 L 0.292 -240.35 C 0.304 -245.34 0.237 -250.34 0.339 -255.33 L 26.206 -255.32 C 26.237 -260.35 26.214 -265.37 26.136 -270.4 L 46.906 -270.48 L 46.991 -280.92 Z M 46.991 -280.92" style="stroke: none; fill-rule: nonzero; fill: rgb(230, 124, 37); fill-opacity: 1; stroke-width: 1;"/>
  <path d="M 46.991 -280.92 L 87.808 -280.93 L 87.941 -239.94 L 72.339 -240.11 L 72.437 -224.82 L 60.569 -225 C 60.663 -205.95 60.327 -186.82 60.776 -167.79 L 101.159 -167.92 L 101.148 -216.83 L 133.191 -216.79 C 133.198 -211.16 133.151 -205.53 133.05 -199.9 L 149.464 -199.9 L 149.378 -184.08 L 165.144 -184.1 L 165.144 -151.93 C 176.632 -151.94 188.257 -151.62 199.73 -152.09 C 199.21 -176.37 199.1 -200.91 199.566 -225.2 L 215.464 -225.08 L 215.511 -238.34 L 233.933 -238.28 C 233.999 -226.56 233.995 -214.83 233.917 -203.11 L 249.038 -203.17 L 248.96 -187.48 L 264.316 -187.6 L 264.284 -171.87 L 279.651 -171.97 C 279.769 -139.97 280.245 -107.87 279.526 -75.88 L 291.086 -75.802 L 291.132 -110.63 C 296.37 -110.72 301.609 -110.76 306.847 -110.75 L 306.796 -95.927 C 311.951 -96.064 317.109 -96.098 322.265 -96.029 L 322.202 15.014 L 347.359 14.967 L 347.308 -32.743 L 381.054 -32.751 L 381.026 -17.279 L 397.558 -17.204 C 397.53 22.659 398.202 62.686 397.249 102.534 L 380.472 102.467 C 381.484 88.26 380.847 73.667 380.855 59.401 L 380.972 -17.154 L 363.566 -17.204 C 363.507 -6.376 363.671 4.432 363.515 15.26 L 347.671 15.3 L 347.612 31.233 L 321.745 31.288 L 321.866 15.436 C 316.698 15.393 311.526 15.46 306.362 15.476 C 306.761 6.159 306.342 -3.325 306.339 -12.661 C 306.266 -33.228 306.345 -53.795 306.577 -74.361 C 302.675 -74.685 298.816 -74.638 294.909 -74.575 L 294.644 -59.99 L 279.214 -59.962 C 278.994 -65.195 279.043 -70.437 279.362 -75.665 C 274.167 -75.63 268.968 -75.63 263.78 -75.665 C 263.741 -107.51 263.202 -139.47 263.995 -171.3 L 248.663 -171.23 L 248.714 -187.09 L 233.534 -187.02 C 233.456 -192.27 233.542 -197.51 233.792 -202.75 L 221.187 -202.53 C 221.066 -205.04 221.093 -207.57 221.066 -210.1 L 215.222 -210.15 C 215.468 -190.65 215.526 -171.13 215.405 -151.62 L 200.761 -151.69 L 200.839 -135.66 C 188.763 -135.73 176.687 -135.69 164.612 -135.54 L 164.605 -151.41 L 149.077 -151.41 L 149.077 -183.74 L 132.967 -183.71 C 132.941 -189.07 132.933 -194.43 132.964 -199.79 L 117.374 -199.65 L 117.292 -167.47 L 101.628 -167.47 L 101.632 -151.7 L 60.55 -151.62 C 60.362 -156.88 60.253 -162.09 60.39 -167.35 C 55.179 -166.95 49.78 -167.29 44.546 -167.34 L 44.487 -225.52 C 49.527 -225.5 54.566 -225.41 59.601 -225.27 C 59.561 -230.26 59.484 -235.26 59.371 -240.26 C 63.593 -240.43 67.823 -240.49 72.05 -240.44 C 72.144 -249.33 72.163 -258.22 72.112 -267.12 L 55.968 -267.1 L 55.921 -254.42 C 46.097 -254.56 36.281 -254.61 26.461 -254.59 L 26.534 -239.75 L 0.878 -239.8 L 0.89 -225.12 C -3.333 -225.23 -7.575 -225.16 -11.798 -225.18 L -11.7 -210.08 C -16.876 -210.01 -22.052 -210.07 -27.224 -210.24 C -26.923 -190.74 -27.177 -171.2 -27.181 -151.69 L -42.903 -151.8 L -42.943 -135.93 C -54.536 -135.83 -66.126 -135.84 -77.72 -135.96 C -77.86 -141.25 -77.966 -146.52 -77.84 -151.82 C -83.071 -151.69 -88.321 -151.8 -93.552 -151.83 C -93.72 -164.4 -93.587 -176.99 -93.579 -189.57 C -100.13 -190.09 -106.88 -189.85 -113.46 -189.91 C -113.44 -184.78 -113.47 -179.65 -113.52 -174.51 C -118.81 -174.79 -124.1 -174.63 -129.39 -174.56 C -129.26 -167 -129.22 -159.44 -129.25 -151.88 L -144.9 -151.92 L -144.91 -75.427 L -161.15 -75.642 L -161.12 -60.04 L -183.72 -60.099 C -183.89 -65.286 -183.69 -70.435 -183.49 -75.615 L -199.11 -75.673 C -199.2 -96.063 -199.17 -116.46 -199.02 -136.85 C -204.04 -136.91 -209.07 -136.99 -214.09 -137.1 L -214.19 -110.72 C -219.43 -110.65 -224.67 -110.62 -229.9 -110.65 L -229.9 -30.716 C -224.61 -30.81 -219.31 -30.802 -214.03 -30.696 C -212.96 -15.908 -214.13 0.436 -213.98 15.421 C -219.25 15.421 -224.54 15.331 -229.81 15.499 L -229.88 31.202 L -260.7 31.171 L -260.64 15.229 L -276.21 15.182 L -276.12 -17.146 C -281.17 -17.263 -286.37 -17.072 -291.39 -17.54 L -291.43 -33.2 L -281.82 -33.24 C -281.85 -38.818 -281.98 -44.42 -281.85 -49.993 L -260.06 -49.888 L -260.23 14.979 C -250.12 15.049 -240.02 15.034 -229.91 14.921 L -229.91 -14.943 C -233.94 -14.97 -237.97 -14.95 -242 -14.884 C -241.92 -19.822 -241.19 -25.868 -242.3 -30.642 C -243.43 -31.115 -244.51 -30.978 -245.71 -30.927 C -246.58 -31.743 -246.35 -31.24 -246.39 -32.467 C -247.24 -58.56 -246.59 -84.872 -246.58 -110.99 C -241.03 -111.13 -235.48 -111.17 -229.93 -111.1 C -230.05 -119.9 -230.06 -128.69 -229.93 -137.49 L -214.39 -137.61 C -214.37 -142.64 -214.4 -147.68 -214.32 -152.72 L -182.85 -152.74 L -182.91 -76.165 L -161.53 -76.135 C -161.61 -101.49 -161.81 -126.88 -161.52 -152.24 L -145.05 -152.28 C -145.13 -159.78 -145.32 -167.29 -145.08 -174.79 L -129.75 -174.82 L -129.72 -190.42 L -113.66 -190.33 L -113.64 -205.66 L -94.38 -205.69 L -94.411 -219.01 C -88.774 -219.15 -83.138 -219.18 -77.505 -219.09 L -77.505 -152.16 C -66.122 -152.17 -54.712 -152.02 -43.333 -152.24 L -43.345 -210.48 C -38.048 -210.49 -32.743 -210.44 -27.446 -210.51 C -27.622 -215.6 -27.688 -220.69 -27.646 -225.78 C -22.61 -225.76 -17.567 -225.69 -12.536 -225.74 L -12.638 -240.29 L 0.292 -240.35 C 0.304 -245.34 0.237 -250.34 0.339 -255.33 L 26.206 -255.32 C 26.237 -260.35 26.214 -265.37 26.136 -270.4 L 46.906 -270.48 L 46.991 -280.92 Z M 46.991 -280.92" style="stroke: none; fill-rule: nonzero; fill: rgb(35, 37, 43); fill-opacity: 1; stroke-width: 1;"/>
  <path d="M 21.527 -225.04 L 28.323 -225.01 C 27.803 -215.12 28.023 -205.15 28.011 -195.24 C 27.956 -180.62 27.976 -165.99 28.069 -151.37 C 33.37 -151.83 38.808 -151.94 44.112 -151.45 L 44.144 -135.41 C 49.456 -135.28 54.776 -135.23 60.089 -135.26 L 60.129 -119.61 C 73.827 -119.48 87.534 -119.49 101.234 -119.61 C 101.359 -124.92 101.558 -130.24 101.542 -135.56 C 106.874 -135.56 112.23 -135.66 117.558 -135.45 C 117.495 -140.76 117.319 -146.1 117.526 -151.4 C 122.746 -151.4 127.972 -151.45 133.194 -151.37 C 132.933 -140.94 133.347 -130.52 133.347 -120.09 C 138.413 -120.09 143.554 -120.26 148.597 -119.76 C 148.581 -116.28 148.457 -112.76 148.73 -109.29 C 143.316 -109.31 137.527 -109.74 132.163 -108.99 C 114.941 -108.57 97.655 -108.95 80.429 -109.01 C 69.714 -110.45 57.839 -109.29 46.984 -109.28 C 22.132 -109.25 -2.79 -109.06 -27.634 -109.42 L -27.489 -119.6 C -23.837 -119.65 -20.181 -119.72 -16.529 -119.72 C -16.497 -125.2 -16.559 -130.69 -16.376 -136.15 L -9.173 -136.1 C -9.184 -152.7 -8.802 -169.4 -9.325 -185.99 L 3.097 -186.02 L 3.066 -210.35 L 21.355 -210.41 L 21.527 -225.04 Z M -112.61 -136.13 C -112.56 -139.67 -113.86 -147.29 -112.3 -150.3 C -111.64 -151.57 -111.29 -151.54 -109.99 -151.86 L -109.21 -151.33 C -108.64 -146.37 -109.19 -141.14 -109.11 -136.13 C -104.4 -136.24 -99.68 -136.29 -94.97 -136.29 L -94.981 -119.68 L -78.13 -119.7 L -78.036 -109.24 C -85.966 -109.38 -94.329 -109.99 -102.21 -109.21 L -102.07 -83.572 C -110.48 -83.568 -118.97 -83.349 -127.37 -83.685 C -126.77 -89.908 -127.13 -96.47 -127.14 -102.72 L -127.19 -136.22 L -112.61 -136.13 Z M -112.61 -136.13" style="stroke: none; fill-rule: nonzero; fill: rgb(246, 182, 70); fill-opacity: 1; stroke-width: 1;"/>
  <path d="M -132.23 -68.779 C -132.16 -72.075 -133.06 -75.97 -131.64 -79.017 C -130.28 -79.654 -129.73 -79.333 -128.28 -79.052 L -128.25 -59.107 L -141.14 -59.072 C -141.2 -50.286 -141.2 -41.502 -141.13 -32.716 L -166.79 -32.661 C -166.93 -13.571 -166.95 5.522 -166.83 24.616 C -166.79 34.51 -166.49 44.476 -166.77 54.358 C -179.17 54.546 -191.58 54.573 -203.99 54.448 C -203.92 62.686 -203.91 70.924 -203.96 79.163 L -228.94 79.178 L -228.95 206.979 C -220.59 207.019 -212.22 206.956 -203.87 207.124 L -204 232.069 L -166.78 232.359 C -165.58 249.155 -166.79 266.456 -166.55 283.323 C -153.78 283.581 -140.93 283.143 -128.18 283.671 C -128.09 293.803 -127.6 304.046 -128.17 314.167 L -165.4 314.3 L -165.43 300.132 C -174.91 300.072 -184.39 300.116 -193.87 300.257 L -193.8 285.667 L -209.39 285.667 L -209.34 270.331 C -219.07 270.172 -228.79 270.229 -238.51 270.503 C -238.45 265.413 -238.32 260.311 -238.35 255.221 C -243.61 255.233 -248.88 255.194 -254.14 255.257 C -253.95 250.104 -253.88 244.947 -253.92 239.792 C -258.77 239.827 -263.74 239.647 -268.58 240.096 L -269.13 239.573 C -269.86 234.593 -269.34 228.773 -269.09 223.745 C -273.77 223.659 -278.42 223.776 -283.1 223.925 L -283.1 208.214 C -287.66 208.007 -292.24 208.163 -296.8 208.229 L -296.84 168.889 C -292.47 168.776 -288.09 168.901 -283.71 168.964 L -283.49 180.174 L -255.35 180.034 C -255.4 171.167 -255.38 162.299 -255.31 153.436 C -259.84 153.362 -264.39 153.456 -268.93 153.464 C -268.95 140.917 -269.28 128.249 -268.74 115.717 C -273.87 115.627 -279.01 115.753 -284.14 115.78 C -284.27 111.069 -284.3 106.354 -284.21 101.64 L -296.75 101.788 C -296.32 90.952 -296.61 80.058 -296.64 69.21 L -296.64 28.1 C -296.67 20.737 -297.68 6.05 -296.49 -0.435 C -295.06 -1.263 -292.93 -0.993 -291.29 -0.99 L -291.39 -17.54 C -286.37 -17.072 -281.17 -17.263 -276.12 -17.146 L -276.21 15.182 L -260.64 15.229 L -260.7 31.171 L -229.88 31.201 L -229.81 15.499 C -224.54 15.331 -219.25 15.421 -213.98 15.421 C -214.13 0.436 -212.96 -15.908 -214.02 -30.697 L -213.66 -30.747 L -213.83 -59.095 L -198.47 -59.029 C -198.36 -54.033 -198.35 -49.033 -198.45 -44.036 C -188.82 -43.892 -179.17 -43.993 -169.54 -43.978 C -169.7 -48.681 -169.73 -53.396 -169.82 -58.107 L -148.3 -58.509 L -148.24 -68.786 L -132.23 -68.779 Z M -132.23 -68.779" style="stroke: none; fill-rule: nonzero; fill: url(&quot;#a&quot;); stroke-width: 1;"/>
  <path d="M -132.23 -68.779 C -132.16 -72.075 -133.06 -75.97 -131.64 -79.017 C -130.28 -79.654 -129.73 -79.333 -128.28 -79.052 L -128.25 -59.107 L -141.14 -59.072 C -141.2 -50.286 -141.2 -41.502 -141.13 -32.716 L -166.79 -32.661 C -166.93 -13.571 -166.95 5.522 -166.83 24.616 C -166.79 34.51 -166.49 44.476 -166.77 54.358 C -179.17 54.546 -191.58 54.573 -203.99 54.448 C -203.92 62.686 -203.91 70.924 -203.96 79.163 L -228.94 79.178 L -228.95 206.979 C -220.59 207.019 -212.22 206.956 -203.87 207.124 L -204 232.069 L -166.78 232.359 C -167.79 243.694 -166.95 256.655 -166.94 268.151 C -175.9 268.05 -184.86 268.128 -193.82 268.12 C -193.81 264.003 -193.72 259.882 -193.66 255.768 L -208.92 255.718 C -209.25 250.741 -209.31 245.819 -209.29 240.835 L -223.68 240.885 C -223.65 236.624 -223.87 232.342 -223.99 228.081 L -238.27 228.081 L -238.22 217.858 C -241.31 217.808 -244.28 217.85 -247.35 218.186 C -247.34 214.816 -247.38 211.444 -247.49 208.069 C -250.22 208.319 -252.96 208.409 -255.7 208.534 L -255.76 192.409 C -250.67 192.249 -245.62 192.135 -240.54 192.249 L -240.63 127.409 C -242.59 127.737 -244.33 128.073 -246.32 127.796 C -248.03 126.049 -247.18 105.936 -247.17 102.139 C -250.86 102.179 -254.57 102.065 -258.26 102.01 C -258.4 96.956 -258.27 91.878 -258.23 86.819 L -276.72 86.792 C -275.6 70.358 -276.56 53.178 -276.7 36.686 L -268.22 36.666 C -268.57 39.85 -268.43 43.159 -268.45 46.366 L -256.22 46.444 C -255.93 50.964 -255.95 55.494 -255.93 60.022 C -242.08 60.643 -228.09 60.389 -214.22 60.374 C -214.22 55.514 -214.23 50.71 -213.73 45.866 L -204.47 45.643 L -204.44 30.768 L -189.86 30.682 C -189.87 15.553 -189.04 -0.142 -190.22 -15.212 L -198.57 -15.204 C -198.52 -20.388 -198.51 -25.576 -198.54 -30.763 C -203.58 -30.832 -208.62 -30.826 -213.66 -30.747 L -213.83 -59.095 L -198.47 -59.029 C -198.36 -54.033 -198.35 -49.033 -198.45 -44.036 C -188.82 -43.892 -179.17 -43.993 -169.54 -43.978 C -169.7 -48.681 -169.73 -53.396 -169.82 -58.107 L -148.3 -58.509 L -148.24 -68.786 L -132.23 -68.779 Z M -132.23 -68.779" style="stroke: none; fill-rule: nonzero; fill: rgb(246, 182, 70); fill-opacity: 1; stroke-width: 1;"/>
  <path d="M -101.92 -83.197 C -91.884 -83.255 -81.848 -83.212 -71.817 -83.067 C -71.716 -70.935 -71.707 -58.798 -71.79 -46.661 C -71.169 -2.349 -71.821 42.057 -71.856 86.385 L -110.29 86.409 L -110.35 186.459 C -97.587 186.385 -84.708 186.772 -71.954 186.245 L -71.848 263.749 C -71.86 277.198 -71.544 290.709 -72.013 304.143 L -101.63 304.183 C -101.61 296.702 -101.65 289.221 -101.75 281.741 L -113.56 281.706 L -113.65 257.862 L -140.85 257.827 L -141.13 -32.716 L -124.38 -32.747 L -113.25 -32.79 L -113.44 -58.618 L -101.81 -58.564 C -101.64 -66.763 -101.86 -74.997 -101.92 -83.197 L -101.92 -83.197 Z M -101.92 -83.197" style="stroke: none; fill-rule: nonzero; fill: rgb(192, 196, 197); fill-opacity: 1; stroke-width: 1;"/>
  <path d="M -101.92 -83.197 C -91.884 -83.255 -81.848 -83.212 -71.817 -83.067 C -71.716 -70.935 -71.707 -58.798 -71.79 -46.661 C -73.34 -39.306 -72.31 -25.517 -72.263 -17.454 C -79.591 -17.478 -86.938 -17.614 -94.259 -17.38 C -94.204 -3.423 -93.942 10.589 -94.235 24.542 L -124.44 24.69 L -124.38 -32.747 L -113.25 -32.79 L -113.44 -58.618 L -101.81 -58.564 C -101.64 -66.763 -101.86 -74.997 -101.92 -83.197 L -101.92 -83.197 Z M -101.92 -83.197" style="stroke: none; fill-rule: nonzero; fill: rgb(231, 232, 232); fill-opacity: 1; stroke-width: 1;"/>
  <path d="M 216.347 -58.661 C 216.601 -50.029 216.362 -41.353 216.292 -32.712 C 225.534 -32.771 234.777 -32.716 244.015 -32.544 C 243.593 3.143 243.901 38.862 243.894 74.55 L 243.819 257.46 L 216.362 257.6 C 216.08 265.653 215.988 273.711 216.085 281.768 C 212.339 281.796 208.542 281.694 204.804 281.928 C 204.937 297.639 204.589 313.374 205.004 329.077 L 240.277 329.042 C 246.448 329.038 253.222 328.518 259.316 329.335 C 254.472 329.917 249.336 329.581 244.448 329.565 L 219.034 329.475 C 214.764 329.464 209.664 328.882 205.562 329.94 C 205.351 330.425 205.116 330.878 205.011 331.393 C 204.933 330.292 205.121 330.061 204.347 329.221 C 194.882 328.358 184.859 329.065 175.327 329.101 C 175.05 315.385 175.327 301.616 175.323 287.901 L 175.198 186.346 C 188.168 186.467 201.136 186.272 214.105 186.51 C 214.609 153.159 214.112 119.745 214.116 86.382 L 175.441 86.412 L 175.339 24.752 L 195.886 24.667 L 195.901 3.187 C 202.417 2.917 208.956 3.069 215.471 3.112 C 215.601 -11.544 215.456 -26.138 215.792 -40.794 C 215.925 -46.74 215.694 -52.747 216.347 -58.661 L 216.347 -58.661 Z M 216.347 -58.661" style="stroke: none; fill-rule: nonzero; fill: rgb(128, 139, 146); fill-opacity: 1; stroke-width: 1;"/>
  <path d="M 232.566 -151.55 C 237.51 -151.61 242.455 -151.57 247.398 -151.43 C 248.018 -120.68 247.007 -89.881 247.866 -59.131 L 261.276 -59.076 C 261.226 -54.208 261.214 -49.337 261.246 -44.466 L 276.901 -44.458 C 276.913 -39.685 276.862 -34.896 276.971 -30.118 C 280.206 -30.107 283.441 -30.142 286.671 -30.056 C 286.32 -9.949 286.186 10.162 286.269 30.272 L 303.214 30.296 C 303.245 35.374 303.39 40.479 303.14 45.553 C 309.073 45.581 315 45.553 320.933 45.475 L 321.019 60.284 C 329.941 60.022 338.868 59.96 347.792 60.096 L 347.788 45.307 C 352.964 45.264 358.14 45.268 363.319 45.315 C 362.729 56.139 363.003 67.081 363.003 77.925 C 363.003 87.147 362.48 96.784 363.691 105.932 C 363.999 109.12 363.917 112.319 363.898 115.522 C 363.839 128.382 363.847 141.249 363.925 154.116 L 366.362 154.432 C 366.601 154.706 366.932 154.917 367.085 155.245 C 367.972 157.21 367.292 187.729 367.285 192.499 L 360.105 192.405 C 360.005 197.778 359.955 203.152 359.956 208.526 L 350.596 208.534 C 350.542 211.581 350.429 214.644 350.448 217.69 L 334.441 217.698 C 334.413 221.151 334.398 224.596 334.214 228.046 L 318.941 228.057 C 318.901 232.277 318.917 236.507 318.792 240.725 L 304.152 240.714 C 303.963 245.794 303.872 250.877 303.878 255.96 C 299.303 255.884 294.726 255.915 290.152 256.053 L 290.148 264.307 C 285.288 264.272 280.405 264.335 275.55 264.104 C 275.468 265.862 275.753 268.069 274.433 269.413 C 273.628 270.229 272.863 270.467 271.769 270.491 C 270.655 269.745 269.925 269.507 269.585 268.124 C 269.402 267.385 269.487 266.385 269.487 265.62 C 269.394 254.536 269.374 243.451 269.425 232.366 C 281.89 232.382 294.355 232.307 306.819 232.136 L 306.789 206.862 L 331.71 206.902 L 331.675 79.241 L 306.749 79.331 L 306.769 54.589 L 269.667 54.553 C 269.597 25.487 269.312 -3.603 269.624 -32.669 C 261.136 -32.822 252.628 -32.709 244.136 -32.716 L 244.21 -58.993 L 231.402 -58.947 C 231.066 -67.127 231.323 -75.392 231.425 -83.579 L 204.937 -83.482 C 205.191 -91.833 205.03 -100.22 205.027 -108.58 C 208.319 -108.06 211.538 -108.03 214.87 -108 L 215.054 -120.55 L 226.632 -120.71 L 226.577 -136.28 L 232.433 -136.34 C 232.503 -141.41 232.55 -146.48 232.566 -151.55 L 232.566 -151.55 Z M 232.566 -151.55" style="stroke: none; fill-rule: nonzero; fill: rgb(246, 182, 70); fill-opacity: 1; stroke-width: 1;"/>
  <path d="M 347.831 115.697 C 353.155 115.725 358.597 116.003 363.898 115.522 C 363.839 128.382 363.847 141.249 363.925 154.116 C 358.753 154.753 353.023 154.311 347.785 154.292 C 347.714 141.425 348.112 128.565 347.831 115.698 L 347.831 115.697 Z M 347.831 115.697" style="stroke: none; fill-rule: nonzero; fill: rgb(230, 124, 37); fill-opacity: 1; stroke-width: 1;"/>
  <path d="M 379.909 141.303 C 384.651 141.225 389.389 141.151 394.136 141.303 C 393.804 163.569 393.468 186.1 394.12 208.354 L 379.448 208.471 C 379.441 213.706 379.351 218.956 379.472 224.186 C 374.53 224.272 369.562 224.26 364.624 224.566 C 364.664 229.647 364.601 234.753 364.796 239.831 C 359.289 239.805 353.782 239.857 348.276 239.987 C 348.292 245.037 348.077 250.197 348.566 255.221 C 343.706 255.214 338.855 255.268 333.999 255.385 L 334.062 270.362 C 326.386 269.839 318.636 270.128 310.941 270.12 L 311.136 285.659 L 277.081 285.69 L 276.956 299.96 C 270.823 299.909 264.683 299.792 258.55 299.823 C 258.53 304.62 258.394 309.448 258.589 314.237 C 249.389 313.862 240.194 314.214 231.003 314.03 C 230.84 303.906 230.81 293.78 230.913 283.655 L 269.308 283.729 C 269.3 277.737 269.05 271.585 269.488 265.619 C 269.488 266.385 269.401 267.385 269.585 268.124 C 269.925 269.507 270.655 269.744 271.769 270.491 C 272.862 270.467 273.629 270.229 274.433 269.413 C 275.753 268.069 275.468 265.862 275.55 264.104 C 280.405 264.334 285.288 264.272 290.148 264.307 L 290.152 256.053 C 294.726 255.915 299.303 255.884 303.878 255.96 C 303.87 250.874 303.964 245.788 304.152 240.714 L 318.792 240.725 C 318.917 236.507 318.902 232.276 318.941 228.057 L 334.214 228.046 C 334.398 224.596 334.414 221.151 334.441 217.698 L 350.448 217.69 C 350.428 214.643 350.542 211.58 350.597 208.534 L 359.957 208.526 C 359.957 203.151 360.003 197.776 360.105 192.405 L 367.285 192.499 C 367.292 187.729 367.972 157.209 367.085 155.245 C 366.933 154.917 366.601 154.705 366.362 154.432 L 379.917 154.35 L 379.909 141.303 Z M 379.909 141.303" style="stroke: none; fill-rule: nonzero; fill: rgb(242, 110, 83); fill-opacity: 1; stroke-width: 1;"/>
  <path d="M 175.37 -83.24 C 185.194 -83.083 195.042 -83.286 204.874 -83.36 C 204.704 -75.129 204.643 -66.897 204.691 -58.665 L 216.347 -58.661 C 215.694 -52.747 215.925 -46.74 215.792 -40.794 C 215.456 -26.138 215.601 -11.544 215.472 3.112 C 208.956 3.069 202.417 2.917 195.902 3.186 L 195.886 24.666 L 175.339 24.753 C 174.937 -11.224 175.339 -47.255 175.37 -83.24 L 175.37 -83.24 Z M 175.37 -83.24" style="stroke: none; fill-rule: nonzero; fill: rgb(192, 196, 197); fill-opacity: 1; stroke-width: 1;"/>
  <path d="M -101.63 304.182 L -72.013 304.143 C -71.876 312.487 -71.907 320.839 -71.868 329.186 C -81.88 329.135 -91.891 329.139 -101.9 329.198 C -101.9 320.874 -102.06 312.498 -101.63 304.182 L -101.63 304.182 Z M -101.63 304.182" style="stroke: none; fill-rule: nonzero; fill: rgb(128, 139, 146); fill-opacity: 1; stroke-width: 1;"/>
  <path d="M -60.509 -83.063 C -51.141 -83.958 -41.302 -83.427 -31.876 -83.415 L 19.398 -83.353 L 120.488 -83.24 C 135.413 -83.189 150.355 -83.435 165.284 -83.103 C 166.093 -26.642 165.288 29.909 165.382 86.382 L 98.624 86.402 C 98.34 106.068 98.268 125.737 98.409 145.405 C 98.413 159.045 98.019 172.85 98.636 186.471 L 165.23 186.495 L 165.218 304.26 L 165.187 329.096 L -61.899 329.182 L -61.969 304.214 L -62.001 186.342 L 4.699 186.405 L 4.612 86.331 L -61.884 86.366 L -61.817 -28.107 C -62.067 -39.372 -61.895 -50.669 -61.895 -61.939 C -61.895 -68.794 -62.278 -75.899 -61.755 -82.728 L -60.509 -83.063 Z M -60.509 -83.063" style="stroke: none; fill-rule: nonzero; fill: rgb(192, 196, 197); fill-opacity: 1; stroke-width: 1;"/>
  <path d="M -61.817 -28.107 C -62.067 -39.372 -61.895 -50.669 -61.895 -61.939 C -61.895 -68.794 -62.278 -75.899 -61.755 -82.728 L -60.509 -83.064 C -53.684 -82.572 -46.708 -82.849 -39.864 -82.861 L -6.966 -82.876 L 99.245 -82.865 L 99.253 -42.615 L -14.759 -42.701 C -14.622 -34.326 -14.583 -25.947 -14.653 -17.568 C -30.204 -17.533 -45.783 -17.786 -61.329 -17.579 C -61.345 -21.001 -61.063 -24.779 -61.817 -28.107 L -61.817 -28.107 Z M -61.817 -28.107" style="stroke: none; fill-rule: nonzero; fill: rgb(231, 232, 232); fill-opacity: 1; stroke-width: 1;"/>
  <path d="M -61.97 304.214 C -29.266 303.862 3.472 304.194 36.179 304.194 L 165.218 304.26 L 165.187 329.096 L -61.899 329.182 L -61.97 304.214 Z M -61.97 304.214" style="stroke: none; fill-rule: nonzero; fill: rgb(128, 139, 146); fill-opacity: 1; stroke-width: 1;"/>
  <path d="M -20.063 223.335 C -12.653 223.729 -5.149 223.479 2.273 223.448 L 2.425 244.178 C 35.292 244.151 68.285 243.518 101.135 244.202 C 101.23 250.932 101.245 257.659 101.183 264.393 C 68.222 265.151 35.077 264.612 2.109 264.37 C 2.054 257.67 2.12 250.971 2.312 244.272 C -5.168 244.237 -12.649 244.26 -20.126 244.35 C -19.974 237.354 -20.086 230.33 -20.063 223.335 L -20.063 223.335 Z M 101.112 223.362 C 108.55 223.55 115.987 223.565 123.425 223.409 C 123.503 230.339 123.347 237.276 123.452 244.202 C 116.034 244.268 108.55 244.53 101.136 244.202 L 101.112 223.362 Z M 101.112 223.362" style="stroke: none; fill-rule: nonzero; fill: rgb(35, 37, 43); fill-opacity: 1; stroke-width: 1;"/>
  <path d="M 124.191 111.702 L 166.277 111.745 C 173.698 111.776 181.144 111.686 188.557 111.882 C 188.503 119.647 188.507 127.409 188.585 135.175 C 188.769 143.944 188.625 152.753 188.632 161.526 L 124.198 161.405 L 124.191 111.702 Z M 124.191 111.702" style="stroke: none; fill-rule: nonzero; fill: rgb(213, 254, 108); fill-opacity: 1; stroke-width: 1;"/>
  <path d="M 166.277 111.745 C 173.698 111.776 181.144 111.686 188.557 111.882 C 188.503 119.647 188.507 127.409 188.585 135.175 C 181.042 135.901 173.089 135.319 165.519 135.081 C 166.046 127.339 165.898 119.511 166.277 111.745 Z M 166.277 111.745" style="stroke: none; fill-rule: nonzero; fill: rgb(255, 255, 255); fill-opacity: 1; stroke-width: 1;"/>
  <path d="M -84.766 111.71 L -44.606 111.768 L -20.766 111.842 C -20.86 119.652 -20.888 127.464 -20.852 135.276 C -20.762 143.893 -20.907 152.526 -20.938 161.147 C -28.408 161.925 -36.27 161.499 -43.782 161.495 L -84.708 161.464 C -85.173 144.932 -84.739 128.26 -84.766 111.71 L -84.766 111.71 Z M -84.766 111.71" style="stroke: none; fill-rule: nonzero; fill: rgb(213, 254, 108); fill-opacity: 1; stroke-width: 1;"/>
  <path d="M -44.606 111.768 L -20.766 111.842 C -20.86 119.652 -20.888 127.464 -20.852 135.276 C -28.794 135.354 -36.7 135.057 -44.649 135.307 C -43.809 127.632 -44.431 119.495 -44.606 111.768 L -44.606 111.768 Z M -44.606 111.768" style="stroke: none; fill-rule: nonzero; fill: rgb(255, 255, 255); fill-opacity: 1; stroke-width: 1;"/>
  <path d="M 270.12 128.827 L 306.245 128.889 L 306.261 181.346 C 306.3 189.854 306.245 198.374 306.659 206.87 C 294.491 207.292 282.253 207.104 270.073 207.143 L 270.043 181.495 C 270.308 163.948 270.097 146.378 270.12 128.827 L 270.12 128.827 Z M 270.12 128.827" style="stroke: none; fill-rule: nonzero; fill: rgb(192, 196, 197); fill-opacity: 1; stroke-width: 1;"/>
  <path d="M 270.042 181.495 C 281.913 180.721 294.374 180.87 306.261 181.346 C 306.3 189.854 306.245 198.374 306.659 206.87 C 294.491 207.292 282.253 207.104 270.073 207.143 L 270.042 181.495 Z M 270.042 181.495" style="stroke: none; fill-rule: nonzero; fill: rgb(128, 139, 146); fill-opacity: 1; stroke-width: 1;"/>
  <path d="M -203.52 128.499 C -200.14 129.714 -173.22 128.671 -167.38 128.69 L -167.43 181.151 C -167.46 189.643 -167.44 198.139 -167.39 206.628 C -179.43 206.706 -191.49 206.471 -203.53 206.757 C -203.57 198.277 -203.58 189.787 -203.54 181.303 L -203.52 128.499 Z M -203.52 128.499" style="stroke: none; fill-rule: nonzero; fill: rgb(192, 196, 197); fill-opacity: 1; stroke-width: 1;"/>
  <path d="M -167.43 181.151 C -167.46 189.643 -167.44 198.139 -167.39 206.628 C -179.43 206.706 -191.49 206.471 -203.53 206.757 C -203.57 198.277 -203.58 189.787 -203.54 181.303 C -191.53 181.307 -179.41 181.623 -167.43 181.151 L -167.43 181.151 Z M -167.43 181.151" style="stroke: none; fill-rule: nonzero; fill: rgb(128, 139, 146); fill-opacity: 1; stroke-width: 1;"/>
  <path d="M 270.077 79.491 C 282.217 79.441 294.417 79.131 306.55 79.409 C 306.363 87.083 306.276 94.76 306.288 102.436 C 306.277 111.253 306.355 120.076 306.245 128.889 L 270.12 128.827 C 270.058 115.249 270.081 101.671 270.19 88.089 C 270.132 85.225 270.093 82.359 270.077 79.491 L 270.077 79.491 Z M 270.077 79.491" style="stroke: none; fill-rule: nonzero; fill: rgb(231, 232, 232); fill-opacity: 1; stroke-width: 1;"/>
  <path d="M 270.077 79.491 C 282.217 79.441 294.417 79.131 306.55 79.409 C 306.363 87.083 306.276 94.76 306.288 102.436 C 297.886 104.233 279.988 103.178 270.612 103.089 C 270.753 98.327 271.378 92.729 270.191 88.089 C 270.132 85.225 270.093 82.359 270.077 79.491 L 270.077 79.491 Z M 270.077 79.491" style="stroke: none; fill-rule: nonzero; fill: rgb(255, 255, 255); fill-opacity: 1; stroke-width: 1;"/>
  <path d="M -203.65 79.518 C -191.55 79.456 -179.45 79.452 -167.36 79.51 L -167.36 102.807 L -167.38 128.69 C -173.22 128.67 -200.14 129.714 -203.52 128.499 C -203.57 118.019 -203.56 107.538 -203.5 97.057 C -203.69 91.213 -203.74 85.365 -203.65 79.518 L -203.65 79.518 Z M -203.65 79.518" style="stroke: none; fill-rule: nonzero; fill: rgb(231, 232, 232); fill-opacity: 1; stroke-width: 1;"/>
  <path d="M -203.65 79.518 C -191.55 79.456 -179.45 79.452 -167.36 79.51 L -167.36 102.807 C -176.72 103.901 -193.12 103.245 -202.9 102.444 C -203.03 100.641 -203.24 98.844 -203.5 97.057 C -203.69 91.213 -203.74 85.365 -203.65 79.518 L -203.65 79.518 Z M -203.65 79.518" style="stroke: none; fill-rule: nonzero; fill: rgb(255, 255, 255); fill-opacity: 1; stroke-width: 1;"/>
</svg>