<svg viewBox="0 0 275 75" fill="none" xmlns="http://www.w3.org/2000/svg">
<path d="M268.818 57.87C268.818 59.894 270.014 61.274 272.452 61.274C273.372 61.274 274.246 61.09 274.936 60.952V64.77C274.246 64.954 273.464 65.138 272.268 65.138C267.346 65.138 264.954 62.24 264.954 57.962V45.68H261.228V42H264.954V37.124H268.818V42H274.936V45.68H268.818V57.87Z" fill="white"/>
<path d="M248.512 45.128C244.326 45.128 242.21 47.842 241.796 51.844H254.63C254.4 47.566 252.468 45.128 248.512 45.128ZM257.344 64.08C255.458 65.092 252.56 65.46 250.214 65.46C241.612 65.46 237.84 60.492 237.84 53.454C237.84 46.508 241.704 41.54 248.696 41.54C255.78 41.54 258.632 46.462 258.632 53.454V55.248H241.842C242.394 59.158 244.924 61.688 250.352 61.688C253.02 61.688 255.274 61.182 257.344 60.446V64.08Z" fill="white"/>
<path d="M221.613 64.9997H217.657V32.3857H221.613V52.7637L231.503 41.9997H236.655L225.845 53.3157L237.115 64.9997H231.733L221.613 54.2357V64.9997Z" fill="white"/>
<path d="M213.141 60.86V64.402C211.761 65.138 209.645 65.46 207.529 65.46C199.341 65.46 195.523 60.492 195.523 53.454C195.523 46.508 199.341 41.54 207.529 41.54C209.599 41.54 211.209 41.816 213.003 42.644V46.324C211.531 45.634 209.967 45.22 207.805 45.22C201.825 45.22 199.387 48.992 199.387 53.454C199.387 57.916 201.871 61.688 207.897 61.688C210.243 61.688 211.715 61.366 213.141 60.86Z" fill="white"/>
<path d="M171.377 55.478V42H175.333V55.892C175.333 60.032 176.989 61.872 180.761 61.872C184.441 61.872 186.971 59.434 186.971 54.788V42H190.927V65H186.971V61.228C185.499 63.942 182.785 65.46 179.703 65.46C174.413 65.46 171.377 61.826 171.377 55.478Z" fill="white"/>
<path d="M163.295 53.4997C163.295 47.9797 161.087 45.2197 156.993 45.2197C153.451 45.2197 150.277 47.4737 150.277 52.5797V54.4197C150.277 59.5257 153.175 61.7797 156.533 61.7797C160.995 61.7797 163.295 58.8357 163.295 53.4997ZM157.591 65.4597C154.233 65.4597 151.657 63.9417 150.277 60.9517V64.9997H146.321V32.3857H150.277V46.1397C151.749 43.1037 154.509 41.5397 158.051 41.5397C164.169 41.5397 167.251 46.7377 167.251 53.4997C167.251 59.9857 164.031 65.4597 157.591 65.4597Z" fill="white"/>
<path d="M135.13 57.87C135.13 59.894 136.326 61.274 138.764 61.274C139.684 61.274 140.558 61.09 141.248 60.952V64.77C140.558 64.954 139.776 65.138 138.58 65.138C133.658 65.138 131.266 62.24 131.266 57.962V45.68H127.54V42H131.266V37.124H135.13V42H141.248V45.68H135.13V57.87Z" fill="white"/>
<path d="M118.992 35.928C118.992 34.18 120.142 33.168 121.752 33.168C123.362 33.168 124.512 34.18 124.512 35.928C124.512 37.676 123.362 38.688 121.752 38.688C120.142 38.688 118.992 37.676 118.992 35.928ZM119.728 65V42H123.684V65H119.728Z" fill="white"/>
<path d="M104.986 51.4293H95.6937V60.8593H105.078C109.034 60.8593 110.828 59.4333 110.828 56.3973C110.828 53.1773 109.126 51.4293 104.986 51.4293ZM103.652 38.7333H95.6937V47.7493H103.652C107.562 47.7493 109.172 45.9553 109.172 43.0573C109.172 40.1133 107.424 38.7333 103.652 38.7333ZM91.5537 64.9993V34.7773H104.204C110.368 34.7773 113.358 37.8133 113.358 42.6893C113.358 46.3233 111.702 48.5773 108.298 49.4053C112.76 50.1413 114.968 52.5793 114.968 56.8573C114.968 61.6873 111.702 64.9993 104.94 64.9993H91.5537Z" fill="white"/>
<path d="M155.186 11.9862C155.186 14.5152 156.33 16.5022 160.967 17.4053C163.676 18.0075 164.278 18.4289 164.278 19.3321C164.278 20.2353 163.676 20.7772 161.749 20.7772C159.521 20.7772 156.872 19.9945 155.126 18.9709V23.0653C156.511 23.7276 158.317 24.5104 161.749 24.5104C166.566 24.5104 168.433 22.3427 168.433 19.2117M168.433 19.2719C168.433 16.2613 166.867 14.8764 162.351 13.913C159.883 13.3711 159.281 12.8292 159.281 12.0464C159.281 11.0831 160.184 10.6616 161.81 10.6616C163.797 10.6616 165.723 11.2637 167.59 12.1067V8.19286C166.265 7.53053 164.278 7.04883 161.93 7.04883C157.474 7.04883 155.186 8.97562 155.186 12.1067" fill="white"/>
<path d="M216.844 7.16895V24.3294H220.517V11.2634L222.022 14.6955L227.2 24.3294H231.776V7.16895H228.164V18.248L226.779 14.9965L222.624 7.16895H216.844Z" fill="white"/>
<path d="M193.602 7.16895H189.628V24.3294H193.602V7.16895Z" fill="white"/>
<path d="M185.051 19.2114C185.051 16.2008 183.486 14.8159 178.97 13.8525C176.501 13.3106 175.899 12.7687 175.899 11.9859C175.899 11.0225 176.802 10.601 178.428 10.601C180.415 10.601 182.341 11.2031 184.208 12.0461V8.13231C182.883 7.46998 180.896 6.98828 178.548 6.98828C174.092 6.98828 171.804 8.91507 171.804 12.0461C171.804 14.575 172.948 16.562 177.585 17.4652C180.294 18.0673 180.896 18.4888 180.896 19.392C180.896 20.2952 180.294 20.8371 178.367 20.8371C176.14 20.8371 173.49 20.0543 171.744 19.0307V23.1252C173.129 23.7875 174.935 24.5703 178.367 24.5703C183.124 24.5703 185.051 22.4026 185.051 19.2114Z" fill="white"/>
<path d="M124.237 7.16895V24.3294H132.426L133.691 20.5963H128.211V7.16895H124.237Z" fill="white"/>
<path d="M108.04 7.16895V10.8419H112.436V24.3294H116.47V10.8419H121.227V7.16895H108.04Z" fill="white"/>
<path d="M102.199 7.16895H96.961L91 24.3294H95.5761L96.4191 21.4393C97.4427 21.7403 98.5265 21.9209 99.6104 21.9209C100.694 21.9209 101.778 21.7403 102.802 21.4393L103.645 24.3294H108.221C108.16 24.3294 102.199 7.16895 102.199 7.16895ZM99.5501 18.3082C98.7674 18.3082 98.0448 18.1878 97.3825 18.0072L99.5501 10.5408L101.718 18.0072C101.055 18.1878 100.333 18.3082 99.5501 18.3082Z" fill="white"/>
<path d="M146.576 7.16895H141.338L135.316 24.3294H139.893L140.736 21.4393C141.759 21.7403 142.843 21.9209 143.927 21.9209C145.011 21.9209 146.094 21.7403 147.118 21.4393L147.961 24.3294H152.537L146.576 7.16895ZM143.927 18.3082C143.144 18.3082 142.421 18.1878 141.759 18.0072L143.927 10.5408L146.094 18.0072C145.432 18.1878 144.71 18.3082 143.927 18.3082Z" fill="white"/>
<path d="M207.992 7.16895H202.754L196.793 24.3294H201.369L202.212 21.4393C203.236 21.7403 204.319 21.9209 205.403 21.9209C206.487 21.9209 207.571 21.7403 208.595 21.4393L209.438 24.3294H214.014L207.992 7.16895ZM205.403 18.3082C204.621 18.3082 203.898 18.1878 203.236 18.0072L205.403 10.5408L207.571 18.0072C206.909 18.1878 206.126 18.3082 205.403 18.3082Z" fill="white"/>
<path d="M0 18.75C0 8.39466 8.39466 0 18.75 0H56.25C66.6053 0 75 8.39466 75 18.75V56.25C75 66.6053 66.6053 75 56.25 75H18.75C8.39466 75 0 66.6053 0 56.25V18.75Z" fill="#94C748"/>
<path d="M55.7581 36.7597L52.6764 55.5847C52.4755 56.7236 51.6715 57.3936 50.5327 57.3936H24.4054C23.2666 57.3936 22.4626 56.7236 22.2617 55.5847L16.8352 22.0213C16.6343 20.8824 17.2372 20.1455 18.3091 20.1455H56.629C57.7009 20.1455 58.3038 20.8824 58.1029 22.0213L56.629 30.8644C56.428 32.1372 55.6911 32.6732 54.4852 32.6732H31.4397C31.1047 32.6732 30.9037 32.8742 30.9707 33.2761L32.7795 44.3969C32.8465 44.6649 33.0475 44.8659 33.3155 44.8659H41.6226C41.8906 44.8659 42.0916 44.6649 42.1586 44.3969L43.4314 36.3578C43.5654 35.3529 44.2353 34.9509 45.1732 34.9509H54.2173C55.5571 34.9509 55.9591 35.6209 55.7581 36.7597Z" fill="#101214"/>
</svg>
