<svg width="275" height="75" viewBox="0 0 275 75" fill="none" xmlns="http://www.w3.org/2000/svg">
<path d="M268.817 57.87C268.817 59.894 270.013 61.274 272.451 61.274C273.371 61.274 274.245 61.09 274.935 60.952V64.77C274.245 64.954 273.463 65.138 272.267 65.138C267.345 65.138 264.953 62.24 264.953 57.962V45.68H261.227V42H264.953V37.124H268.817V42H274.935V45.68H268.817V57.87Z" fill="#101214"/>
<path d="M248.512 45.128C244.326 45.128 242.21 47.842 241.796 51.844H254.63C254.4 47.566 252.468 45.128 248.512 45.128ZM257.344 64.08C255.458 65.092 252.56 65.46 250.214 65.46C241.612 65.46 237.84 60.492 237.84 53.454C237.84 46.508 241.704 41.54 248.696 41.54C255.78 41.54 258.632 46.462 258.632 53.454V55.248H241.842C242.394 59.158 244.924 61.688 250.352 61.688C253.02 61.688 255.274 61.182 257.344 60.446V64.08Z" fill="#101214"/>
<path d="M221.614 65.0002H217.658V32.3862H221.614V52.7642L231.504 42.0002H236.656L225.846 53.3162L237.116 65.0002H231.734L221.614 54.2362V65.0002Z" fill="#101214"/>
<path d="M213.142 60.86V64.402C211.762 65.138 209.646 65.46 207.53 65.46C199.342 65.46 195.524 60.492 195.524 53.454C195.524 46.508 199.342 41.54 207.53 41.54C209.6 41.54 211.21 41.816 213.004 42.644V46.324C211.532 45.634 209.968 45.22 207.806 45.22C201.826 45.22 199.388 48.992 199.388 53.454C199.388 57.916 201.872 61.688 207.898 61.688C210.244 61.688 211.716 61.366 213.142 60.86Z" fill="#101214"/>
<path d="M171.378 55.478V42H175.334V55.892C175.334 60.032 176.99 61.872 180.762 61.872C184.442 61.872 186.972 59.434 186.972 54.788V42H190.928V65H186.972V61.228C185.5 63.942 182.786 65.46 179.704 65.46C174.414 65.46 171.378 61.826 171.378 55.478Z" fill="#101214"/>
<path d="M163.296 53.5002C163.296 47.9802 161.088 45.2202 156.994 45.2202C153.452 45.2202 150.278 47.4742 150.278 52.5802V54.4202C150.278 59.5262 153.176 61.7802 156.534 61.7802C160.996 61.7802 163.296 58.8362 163.296 53.5002ZM157.592 65.4602C154.234 65.4602 151.658 63.9422 150.278 60.9522V65.0002H146.322V32.3862H150.278V46.1402C151.75 43.1042 154.51 41.5402 158.052 41.5402C164.17 41.5402 167.252 46.7382 167.252 53.5002C167.252 59.9862 164.032 65.4602 157.592 65.4602Z" fill="#101214"/>
<path d="M135.13 57.87C135.13 59.894 136.326 61.274 138.764 61.274C139.684 61.274 140.558 61.09 141.248 60.952V64.77C140.558 64.954 139.776 65.138 138.58 65.138C133.658 65.138 131.266 62.24 131.266 57.962V45.68H127.54V42H131.266V37.124H135.13V42H141.248V45.68H135.13V57.87Z" fill="#101214"/>
<path d="M118.992 35.9285C118.992 34.1805 120.142 33.1685 121.752 33.1685C123.362 33.1685 124.512 34.1805 124.512 35.9285C124.512 37.6765 123.362 38.6885 121.752 38.6885C120.142 38.6885 118.992 37.6765 118.992 35.9285ZM119.728 65.0005V42.0005H123.684V65.0005H119.728Z" fill="#101214"/>
<path d="M104.986 51.4303H95.694V60.8603H105.078C109.034 60.8603 110.828 59.4343 110.828 56.3983C110.828 53.1783 109.126 51.4303 104.986 51.4303ZM103.652 38.7343H95.694V47.7503H103.652C107.562 47.7503 109.172 45.9563 109.172 43.0583C109.172 40.1143 107.424 38.7343 103.652 38.7343ZM91.554 65.0003V34.7783H104.204C110.368 34.7783 113.358 37.8143 113.358 42.6903C113.358 46.3243 111.702 48.5783 108.298 49.4063C112.76 50.1423 114.968 52.5803 114.968 56.8583C114.968 61.6883 111.702 65.0003 104.94 65.0003H91.554Z" fill="#101214"/>
<path d="M155.186 11.9857C155.186 14.5147 156.33 16.5017 160.967 17.4049C163.676 18.007 164.278 18.4285 164.278 19.3316C164.278 20.2348 163.676 20.7767 161.749 20.7767C159.522 20.7767 156.872 19.994 155.126 18.9704V23.0648C156.511 23.7271 158.317 24.5099 161.749 24.5099C166.566 24.5099 168.433 22.3423 168.433 19.2112M168.433 19.2714C168.433 16.2608 166.867 14.8759 162.352 13.9125C159.883 13.3706 159.281 12.8287 159.281 12.046C159.281 11.0826 160.184 10.6611 161.81 10.6611C163.797 10.6611 165.723 11.2632 167.59 12.1062V8.19237C166.265 7.53004 164.278 7.04834 161.93 7.04834C157.474 7.04834 155.186 8.97513 155.186 12.1062" fill="#101214"/>
<path d="M216.844 7.16846V24.329H220.517V11.2629L222.022 14.695L227.2 24.329H231.777V7.16846H228.164V18.2475L226.779 14.9961L222.624 7.16846H216.844Z" fill="#101214"/>
<path d="M193.602 7.16846H189.628V24.329H193.602V7.16846Z" fill="#101214"/>
<path d="M185.052 19.2109C185.052 16.2003 183.486 14.8154 178.97 13.852C176.501 13.3101 175.899 12.7682 175.899 11.9854C175.899 11.022 176.802 10.6005 178.428 10.6005C180.415 10.6005 182.342 11.2027 184.209 12.0456V8.13183C182.884 7.46949 180.897 6.98779 178.549 6.98779C174.093 6.98779 171.805 8.91459 171.805 12.0456C171.805 14.5745 172.949 16.5615 177.585 17.4647C180.295 18.0669 180.897 18.4883 180.897 19.3915C180.897 20.2947 180.295 20.8366 178.368 20.8366C176.14 20.8366 173.491 20.0539 171.745 19.0302V23.1247C173.13 23.787 174.936 24.5698 178.368 24.5698C183.125 24.5698 185.052 22.4021 185.052 19.2109Z" fill="#101214"/>
<path d="M124.237 7.16846V24.329H132.426L133.691 20.5958H128.211V7.16846H124.237Z" fill="#101214"/>
<path d="M108.04 7.16846V10.8414H112.436V24.329H116.47V10.8414H121.227V7.16846H108.04Z" fill="#101214"/>
<path d="M102.2 7.16846H96.9611L91.0001 24.329H95.5763L96.4192 21.4388C97.4428 21.7398 98.5267 21.9205 99.6105 21.9205C100.694 21.9205 101.778 21.7398 102.802 21.4388L103.645 24.329H108.221C108.161 24.329 102.2 7.16846 102.2 7.16846ZM99.5503 18.3077C98.7675 18.3077 98.045 18.1873 97.3826 18.0067L99.5503 10.5403L101.718 18.0067C101.056 18.1873 100.333 18.3077 99.5503 18.3077Z" fill="#101214"/>
<path d="M146.576 7.16846H141.337L135.316 24.329H139.892L140.735 21.4388C141.759 21.7398 142.843 21.9205 143.927 21.9205C145.01 21.9205 146.094 21.7398 147.118 21.4388L147.961 24.329H152.537L146.576 7.16846ZM143.927 18.3077C143.144 18.3077 142.421 18.1873 141.759 18.0067L143.927 10.5403L146.094 18.0067C145.432 18.1873 144.709 18.3077 143.927 18.3077Z" fill="#101214"/>
<path d="M207.992 7.16846H202.754L196.793 24.329H201.369L202.212 21.4388C203.236 21.7398 204.319 21.9205 205.403 21.9205C206.487 21.9205 207.571 21.7398 208.595 21.4388L209.438 24.329H214.014L207.992 7.16846ZM205.403 18.3077C204.621 18.3077 203.898 18.1873 203.236 18.0067L205.403 10.5403L207.571 18.0067C206.909 18.1873 206.126 18.3077 205.403 18.3077Z" fill="#101214"/>
<path d="M0 18.75C0 8.39466 8.39466 0 18.75 0H56.25C66.6053 0 75 8.39466 75 18.75V56.25C75 66.6053 66.6053 75 56.25 75H18.75C8.39466 75 0 66.6053 0 56.25V18.75Z" fill="#94C748"/>
<path d="M55.7581 36.7602L52.6764 55.5852C52.4755 56.7241 51.6715 57.394 50.5327 57.394H24.4054C23.2666 57.394 22.4626 56.7241 22.2617 55.5852L16.8352 22.0218C16.6343 20.8829 17.2372 20.146 18.3091 20.146H56.629C57.7009 20.146 58.3038 20.8829 58.1029 22.0218L56.629 30.8649C56.428 32.1377 55.6911 32.6737 54.4852 32.6737H31.4397C31.1047 32.6737 30.9037 32.8746 30.9707 33.2766L32.7795 44.3974C32.8465 44.6654 33.0475 44.8664 33.3155 44.8664H41.6226C41.8906 44.8664 42.0916 44.6654 42.1586 44.3974L43.4314 36.3583C43.5654 35.3534 44.2353 34.9514 45.1732 34.9514H54.2173C55.5571 34.9514 55.9591 35.6214 55.7581 36.7602Z" fill="#101214"/>
</svg>
