<svg viewBox="0 0 184 164" fill="none" xmlns="http://www.w3.org/2000/svg">
  <path
    d="M177.263 146.871C177.263 148.895 178.459 150.275 180.897 150.275C181.817 150.275 182.691 150.091 183.381 149.953V153.771C182.691 153.955 181.909 154.139 180.713 154.139C175.791 154.139 173.399 151.241 173.399 146.963V134.681H169.673V131.001H173.399V126.125H177.263V131.001H183.381V134.681H177.263V146.871Z"
    fill="white" />
  <path
    d="M156.959 134.129C152.773 134.129 150.657 136.843 150.243 140.845H163.077C162.847 136.567 160.915 134.129 156.959 134.129ZM165.791 153.081C163.905 154.093 161.007 154.461 158.661 154.461C150.059 154.461 146.287 149.493 146.287 142.455C146.287 135.509 150.151 130.541 157.143 130.541C164.227 130.541 167.079 135.463 167.079 142.455V144.249H150.289C150.841 148.159 153.371 150.689 158.799 150.689C161.467 150.689 163.721 150.183 165.791 149.447V153.081Z"
    fill="white" />
  <path
    d="M130.06 154.001H126.104V121.387H130.06V141.765L139.95 131.001H145.102L134.292 142.317L145.562 154.001H140.18L130.06 143.237V154.001Z"
    fill="white" />
  <path
    d="M121.588 149.861V153.403C120.208 154.139 118.092 154.461 115.976 154.461C107.788 154.461 103.97 149.493 103.97 142.455C103.97 135.509 107.788 130.541 115.976 130.541C118.046 130.541 119.656 130.817 121.45 131.645V135.325C119.978 134.635 118.414 134.221 116.252 134.221C110.272 134.221 107.834 137.993 107.834 142.455C107.834 146.917 110.318 150.689 116.344 150.689C118.69 150.689 120.162 150.367 121.588 149.861Z"
    fill="white" />
  <path
    d="M79.8237 144.479V131.001H83.7797V144.893C83.7797 149.033 85.4357 150.873 89.2077 150.873C92.8877 150.873 95.4177 148.435 95.4177 143.789V131.001H99.3737V154.001H95.4177V150.229C93.9457 152.943 91.2317 154.461 88.1497 154.461C82.8597 154.461 79.8237 150.827 79.8237 144.479Z"
    fill="white" />
  <path
    d="M71.7421 142.501C71.7421 136.981 69.5341 134.221 65.4401 134.221C61.8981 134.221 58.7241 136.475 58.7241 141.581V143.421C58.7241 148.527 61.6221 150.781 64.9801 150.781C69.4421 150.781 71.7421 147.837 71.7421 142.501ZM66.0381 154.461C62.6801 154.461 60.1041 152.943 58.7241 149.953V154.001H54.7681V121.387H58.7241V135.141C60.1961 132.105 62.9561 130.541 66.4981 130.541C72.6161 130.541 75.6981 135.739 75.6981 142.501C75.6981 148.987 72.4781 154.461 66.0381 154.461Z"
    fill="white" />
  <path
    d="M43.5758 146.871C43.5758 148.895 44.7718 150.275 47.2098 150.275C48.1298 150.275 49.0038 150.091 49.6938 149.953V153.771C49.0038 153.955 48.2218 154.139 47.0258 154.139C42.1038 154.139 39.7118 151.241 39.7118 146.963V134.681H35.9858V131.001H39.7118V126.125H43.5758V131.001H49.6938V134.681H43.5758V146.871Z"
    fill="white" />
  <path
    d="M27.4385 124.929C27.4385 123.181 28.5885 122.169 30.1985 122.169C31.8085 122.169 32.9585 123.181 32.9585 124.929C32.9585 126.677 31.8085 127.689 30.1985 127.689C28.5885 127.689 27.4385 126.677 27.4385 124.929ZM28.1745 154.001V131.001H32.1305V154.001H28.1745Z"
    fill="white" />
  <path
    d="M13.432 140.43H4.14V149.86H13.524C17.48 149.86 19.274 148.434 19.274 145.398C19.274 142.178 17.572 140.43 13.432 140.43ZM12.098 127.734H4.14V136.75H12.098C16.008 136.75 17.618 134.956 17.618 132.058C17.618 129.114 15.87 127.734 12.098 127.734ZM0 154V123.778H12.65C18.814 123.778 21.804 126.814 21.804 131.69C21.804 135.324 20.148 137.578 16.744 138.406C21.206 139.142 23.414 141.58 23.414 145.858C23.414 150.688 20.148 154 13.386 154H0Z"
    fill="white" />
  <path
    d="M84.1422 95.9862C84.1422 98.5152 85.2863 100.502 89.9226 101.405C92.6322 102.007 93.2343 102.429 93.2343 103.332C93.2343 104.235 92.6322 104.777 90.7054 104.777C88.4775 104.777 85.8282 103.994 84.082 102.971V107.065C85.4669 107.728 87.2733 108.51 90.7054 108.51C95.5224 108.51 97.3889 106.343 97.3889 103.212M97.3889 103.272C97.3889 100.261 95.8234 98.8764 91.3075 97.913C88.8388 97.3711 88.2367 96.8292 88.2367 96.0464C88.2367 95.0831 89.1399 94.6616 90.7656 94.6616C92.7526 94.6616 94.6794 95.2637 96.546 96.1067V92.1929C95.2213 91.5305 93.2343 91.0488 90.886 91.0488C86.4303 91.0488 84.1422 92.9756 84.1422 96.1067"
    fill="white" />
  <path
    d="M145.8 91.1689V108.329H149.473V95.2634L150.978 98.6955L156.156 108.329H160.732V91.1689H157.12V102.248L155.735 98.9965L151.58 91.1689H145.8Z"
    fill="white" />
  <path d="M122.558 91.1689H118.584V108.329H122.558V91.1689Z" fill="white" />
  <path
    d="M114.008 103.211C114.008 100.201 112.442 98.8159 107.926 97.8525C105.457 97.3106 104.855 96.7687 104.855 95.9859C104.855 95.0225 105.759 94.601 107.384 94.601C109.371 94.601 111.298 95.2031 113.165 96.0461V92.1323C111.84 91.47 109.853 90.9883 107.505 90.9883C103.049 90.9883 100.761 92.9151 100.761 96.0461C100.761 98.575 101.905 100.562 106.541 101.465C109.251 102.067 109.853 102.489 109.853 103.392C109.853 104.295 109.251 104.837 107.324 104.837C105.096 104.837 102.447 104.054 100.701 103.031V107.125C102.086 107.788 103.892 108.57 107.324 108.57C112.081 108.57 114.008 106.403 114.008 103.211Z"
    fill="white" />
  <path d="M53.1934 91.1689V108.329H61.3822L62.6467 104.596H57.1674V91.1689H53.1934Z" fill="white" />
  <path d="M36.9966 91.1689V94.8419H41.3921V108.329H45.4263V94.8419H50.1831V91.1689H36.9966Z"
    fill="white" />
  <path
    d="M31.1555 91.1689H25.9171L19.9561 108.329H24.5322L25.3752 105.439C26.3988 105.74 27.4826 105.921 28.5664 105.921C29.6502 105.921 30.7341 105.74 31.7577 105.439L32.6006 108.329H37.1768C37.1166 108.329 31.1555 91.1689 31.1555 91.1689ZM28.5062 102.308C27.7234 102.308 27.0009 102.188 26.3386 102.007L28.5062 94.5408L30.6738 102.007C30.0115 102.188 29.289 102.308 28.5062 102.308Z"
    fill="white" />
  <path
    d="M75.5317 91.1689H70.2932L64.272 108.329H68.8481L69.6911 105.439C70.7147 105.74 71.7985 105.921 72.8823 105.921C73.9661 105.921 75.05 105.74 76.0736 105.439L76.9165 108.329H81.4927L75.5317 91.1689ZM72.8823 102.308C72.0996 102.308 71.377 102.188 70.7147 102.007L72.8823 94.5408L75.05 102.007C74.3876 102.188 73.6651 102.308 72.8823 102.308Z"
    fill="white" />
  <path
    d="M136.948 91.1689H131.71L125.749 108.329H130.325L131.168 105.439C132.192 105.74 133.276 105.921 134.359 105.921C135.443 105.921 136.527 105.74 137.551 105.439L138.394 108.329H142.97L136.948 91.1689ZM134.359 102.308C133.577 102.308 132.854 102.188 132.192 102.007L134.359 94.5408L136.527 102.007C135.865 102.188 135.082 102.308 134.359 102.308Z"
    fill="white" />
  <path
    d="M52.9561 18.75C52.9561 8.39466 61.3507 0 71.7061 0H109.206C119.561 0 127.956 8.39466 127.956 18.75V56.25C127.956 66.6053 119.561 75 109.206 75H71.7061C61.3507 75 52.9561 66.6053 52.9561 56.25V18.75Z"
    fill="#94C748" />
  <path
    d="M108.714 36.7597L105.632 55.5847C105.432 56.7236 104.628 57.3936 103.489 57.3936H77.3615C76.2226 57.3936 75.4187 56.7236 75.2177 55.5847L69.7913 22.0213C69.5903 20.8824 70.1933 20.1455 71.2651 20.1455H109.585C110.657 20.1455 111.26 20.8824 111.059 22.0213L109.585 30.8644C109.384 32.1372 108.647 32.6732 107.441 32.6732H84.3957C84.0608 32.6732 83.8598 32.8742 83.9268 33.2761L85.7356 44.3969C85.8026 44.6649 86.0036 44.8659 86.2715 44.8659H94.5787C94.8466 44.8659 95.0476 44.6649 95.1146 44.3969L96.3875 36.3578C96.5215 35.3529 97.1914 34.9509 98.1293 34.9509H107.173C108.513 34.9509 108.915 35.6209 108.714 36.7597Z"
    fill="#101214" />
</svg>