<svg width="236" height="48" viewBox="0 0 236 48" fill="none" xmlns="http://www.w3.org/2000/svg">
<g clip-path="url(#clip0_459_69325)">
<path d="M30.6895 22.417L28.2621 37.2453C28.1037 38.1424 27.4705 38.6701 26.5734 38.6701H5.99321C5.09612 38.6701 4.46288 38.1424 4.30457 37.2453L0.0302196 10.8076C-0.12809 9.91055 0.346838 9.33008 1.19115 9.33008H31.3755C32.2198 9.33008 32.6947 9.91055 32.5364 10.8076L31.3755 17.7732C31.2172 18.7759 30.6367 19.198 29.6868 19.198H11.534C11.2702 19.198 11.1119 19.3563 11.1646 19.673L12.5894 28.4327C12.6422 28.6438 12.8005 28.8021 13.0116 28.8021H19.555C19.7661 28.8021 19.9244 28.6438 19.9772 28.4327L20.9798 22.1004C21.0854 21.3088 21.6131 20.9922 22.3518 20.9922H29.4758C30.5312 20.9922 30.8478 21.5199 30.6895 22.417Z" fill="#1868DB"/>
<path d="M229.818 30.871C229.818 32.895 231.014 34.275 233.452 34.275C234.372 34.275 235.246 34.091 235.936 33.953V37.771C235.246 37.955 234.464 38.139 233.268 38.139C228.346 38.139 225.954 35.241 225.954 30.963V18.681H222.228V15.001H225.954V10.125H229.818V15.001H235.936V18.681H229.818V30.871Z" fill="#101214"/>
<path d="M209.512 18.129C205.326 18.129 203.21 20.843 202.796 24.845H215.63C215.4 20.567 213.468 18.129 209.512 18.129ZM218.344 37.081C216.458 38.093 213.56 38.461 211.214 38.461C202.612 38.461 198.84 33.493 198.84 26.455C198.84 19.509 202.704 14.541 209.696 14.541C216.78 14.541 219.632 19.463 219.632 26.455V28.249H202.842C203.394 32.159 205.924 34.689 211.352 34.689C214.02 34.689 216.274 34.183 218.344 33.447V37.081Z" fill="#101214"/>
<path d="M182.613 38.0007H178.657V5.38672H182.613V25.7647L192.503 15.0007H197.655L186.845 26.3167L198.115 38.0007H192.733L182.613 27.2367V38.0007Z" fill="#101214"/>
<path d="M174.141 33.861V37.403C172.761 38.139 170.645 38.461 168.529 38.461C160.341 38.461 156.523 33.493 156.523 26.455C156.523 19.509 160.341 14.541 168.529 14.541C170.599 14.541 172.209 14.817 174.003 15.645V19.325C172.531 18.635 170.967 18.221 168.805 18.221C162.825 18.221 160.387 21.993 160.387 26.455C160.387 30.917 162.871 34.689 168.897 34.689C171.243 34.689 172.715 34.367 174.141 33.861Z" fill="#101214"/>
<path d="M132.377 28.478V15H136.333V28.892C136.333 33.032 137.989 34.872 141.761 34.872C145.441 34.872 147.971 32.434 147.971 27.788V15H151.927V38H147.971V34.228C146.499 36.942 143.785 38.46 140.703 38.46C135.413 38.46 132.377 34.826 132.377 28.478Z" fill="#101214"/>
<path d="M124.295 26.5007C124.295 20.9807 122.087 18.2207 117.993 18.2207C114.451 18.2207 111.277 20.4747 111.277 25.5807V27.4207C111.277 32.5267 114.175 34.7807 117.533 34.7807C121.995 34.7807 124.295 31.8367 124.295 26.5007ZM118.591 38.4607C115.233 38.4607 112.657 36.9427 111.277 33.9527V38.0007H107.321V5.38672H111.277V19.1407C112.749 16.1047 115.509 14.5407 119.051 14.5407C125.169 14.5407 128.251 19.7387 128.251 26.5007C128.251 32.9867 125.031 38.4607 118.591 38.4607Z" fill="#101214"/>
<path d="M96.13 30.871C96.13 32.895 97.326 34.275 99.764 34.275C100.684 34.275 101.558 34.091 102.248 33.953V37.771C101.558 37.955 100.776 38.139 99.58 38.139C94.658 38.139 92.266 35.241 92.266 30.963V18.681H88.54V15.001H92.266V10.125H96.13V15.001H102.248V18.681H96.13V30.871Z" fill="#101214"/>
<path d="M79.9922 8.92797C79.9922 7.17997 81.1422 6.16797 82.7522 6.16797C84.3622 6.16797 85.5122 7.17997 85.5122 8.92797C85.5122 10.676 84.3622 11.688 82.7522 11.688C81.1422 11.688 79.9922 10.676 79.9922 8.92797ZM80.7282 38V15H84.6842V38H80.7282Z" fill="#101214"/>
<path d="M65.9857 24.4313H56.6937V33.8613H66.0777C70.0337 33.8613 71.8277 32.4353 71.8277 29.3993C71.8277 26.1793 70.1257 24.4313 65.9857 24.4313ZM64.6517 11.7353H56.6937V20.7513H64.6517C68.5617 20.7513 70.1717 18.9573 70.1717 16.0593C70.1717 13.1153 68.4237 11.7353 64.6517 11.7353ZM52.5537 38.0013V7.7793H65.2037C71.3677 7.7793 74.3577 10.8153 74.3577 15.6913C74.3577 19.3253 72.7017 21.5793 69.2977 22.4073C73.7597 23.1433 75.9677 25.5813 75.9677 29.8593C75.9677 34.6893 72.7017 38.0013 65.9397 38.0013H52.5537Z" fill="#101214"/>
</g>
<defs>
<clipPath id="clip0_459_69325">
<rect width="236" height="48" fill="white"/>
</clipPath>
</defs>
</svg>
